<svg xmlns="http://www.w3.org/2000/svg" width="732.76" height="615.545" viewBox="0 0 732.76 615.545">
  <g id="undraw_design_stats_ne2k" transform="translate(0)">
    <path id="Trazado_872" data-name="Trazado 872" d="M216.252,126.5c-17.546.019-31.764,13.615-31.784,30.393v554.76c.02,16.777,14.239,30.373,31.784,30.392H534.034c17.546-.019,31.764-13.615,31.784-30.392V156.893c-.02-16.777-14.239-30.374-31.784-30.393Z" transform="translate(-184.468 -126.5)" fill="#e6e6e6"/>
    <path id="Trazado_873" data-name="Trazado 873" d="M226.731,144.65c-13.312.014-24.1,10.3-24.114,23V701.083c.015,12.694,10.8,22.981,24.114,23H523.738c13.312-.015,24.1-10.3,24.114-23V167.646c-.015-12.694-10.8-22.981-24.114-23Z" transform="translate(-184.56 -126.592)" fill="#fff"/>
    <path id="Trazado_874" data-name="Trazado 874" d="M518.761,262.731H231.951a5.318,5.318,0,0,1-5.311-5.311V186.275a5.318,5.318,0,0,1,5.311-5.311h286.81a5.318,5.318,0,0,1,5.311,5.311V257.42A5.318,5.318,0,0,1,518.761,262.731Zm-286.81-79.643a3.19,3.19,0,0,0-3.187,3.187V257.42a3.19,3.19,0,0,0,3.187,3.187h286.81a3.19,3.19,0,0,0,3.187-3.187V186.275a3.19,3.19,0,0,0-3.187-3.187Z" transform="translate(-184.681 -126.775)" fill="#e6e6e6"/>
    <path id="Trazado_875" data-name="Trazado 875" d="M518.761,545.353H231.951a5.318,5.318,0,0,1-5.311-5.311V408.347a5.318,5.318,0,0,1,5.311-5.311h286.81a5.318,5.318,0,0,1,5.311,5.311V540.042A5.318,5.318,0,0,1,518.761,545.353ZM231.951,405.16a3.19,3.19,0,0,0-3.187,3.187V540.042a3.19,3.19,0,0,0,3.187,3.187h286.81a3.19,3.19,0,0,0,3.187-3.187V408.347a3.19,3.19,0,0,0-3.187-3.187Z" transform="translate(-184.681 -143.363)" fill="#e6e6e6"/>
    <path id="Trazado_876" data-name="Trazado 876" d="M517.436,373.767H389.964a5.317,5.317,0,0,1-5.311-5.311V297.311A5.317,5.317,0,0,1,389.964,292H517.436a5.317,5.317,0,0,1,5.311,5.311v71.145A5.317,5.317,0,0,1,517.436,373.767ZM389.964,294.124a3.19,3.19,0,0,0-3.187,3.187v71.145a3.19,3.19,0,0,0,3.187,3.187H517.436a3.19,3.19,0,0,0,3.187-3.187V297.311a3.19,3.19,0,0,0-3.187-3.187Z" transform="translate(-212.692 -135.595)" fill="#e6e6e6"/>
    <path id="Trazado_877" data-name="Trazado 877" d="M359.423,718.307H231.951A5.318,5.318,0,0,1,226.64,713V580.24a5.318,5.318,0,0,1,5.311-5.311H359.423a5.318,5.318,0,0,1,5.311,5.311V713a5.318,5.318,0,0,1-5.311,5.311ZM231.951,577.053a3.19,3.19,0,0,0-3.187,3.187V713a3.19,3.19,0,0,0,3.187,3.187H359.423A3.19,3.19,0,0,0,362.61,713V580.24a3.19,3.19,0,0,0-3.187-3.187Z" transform="translate(-184.681 -156.95)" fill="#e6e6e6"/>
    <path id="Trazado_878" data-name="Trazado 878" d="M517.436,718.307H389.964A5.318,5.318,0,0,1,384.653,713V580.24a5.318,5.318,0,0,1,5.311-5.311H517.436a5.318,5.318,0,0,1,5.311,5.311V713A5.318,5.318,0,0,1,517.436,718.307ZM389.964,577.053a3.19,3.19,0,0,0-3.187,3.187V713a3.19,3.19,0,0,0,3.187,3.187H517.436A3.19,3.19,0,0,0,520.623,713V580.24a3.19,3.19,0,0,0-3.187-3.187Z" transform="translate(-212.692 -156.95)" fill="#e6e6e6"/>
    <circle id="Elipse_186" data-name="Elipse 186" cx="21.635" cy="21.635" r="21.635" transform="translate(68.075 286.066)" fill="#e6e6e6"/>
    <path id="Trazado_879" data-name="Trazado 879" d="M324.837,435.428a3.606,3.606,0,0,0,0,7.212H494.83a3.606,3.606,0,1,0,0-7.212Z" transform="translate(-204.869 -141.671)" fill="#e6e6e6"/>
    <path id="Trazado_880" data-name="Trazado 880" d="M324.837,457.174a3.606,3.606,0,0,0-.015,7.212h73.163a3.606,3.606,0,1,0,0-7.212Z" transform="translate(-202.311 -142.739)" fill="#e6e6e6"/>
    <path id="Trazado_881" data-name="Trazado 881" d="M257.93,491.938c-2.743,0-4.975,1.618-4.975,3.606s2.232,3.606,4.975,3.606H492.467c2.743,0,4.975-1.618,4.975-3.606s-2.232-3.606-4.975-3.606Z" transform="translate(-184.814 -144.447)" fill="#e6e6e6"/>
    <path id="Trazado_882" data-name="Trazado 882" d="M257.93,513.684c-2.743,0-4.975,1.618-4.975,3.606s2.232,3.606,4.975,3.606H492.467c2.743,0,4.975-1.618,4.975-3.606s-2.232-3.606-4.975-3.606Z" transform="translate(-184.814 -145.514)" fill="#e6e6e6"/>
    <circle id="Elipse_187" data-name="Elipse 187" cx="21.635" cy="21.635" r="21.635" transform="translate(70.199 70.707)" fill="#e6e6e6"/>
    <path id="Trazado_883" data-name="Trazado 883" d="M326.973,204.815a3.606,3.606,0,0,0,0,7.212H496.965a3.606,3.606,0,1,0,.015-7.212H326.973Z" transform="translate(-205.188 -126.896)" fill="#e6e6e6"/>
    <path id="Trazado_884" data-name="Trazado 884" d="M326.973,226.56a3.606,3.606,0,0,0,0,7.212h73.148a3.606,3.606,0,0,0,.015-7.212H326.973Z" transform="translate(-202.591 -127.006)" fill="#e6e6e6"/>
    <path id="Trazado_885" data-name="Trazado 885" d="M359.376,373.856H239.8l28.141-48.742a5.747,5.747,0,0,1,9.953,0l12.022,20.822,20.441-35.4a7.195,7.195,0,0,1,12.462,0Zm-115.9-2.124H355.7l-34.722-60.138a5.069,5.069,0,0,0-8.781,0l-22.281,38.591-13.861-24.008a3.621,3.621,0,0,0-6.273,0Z" transform="translate(-184.748 -136.184)" fill="#e6e6e6"/>
    <path id="Trazado_886" data-name="Trazado 886" d="M513.119,373.856H393.54l28.141-48.742a5.747,5.747,0,0,1,9.954,0l12.021,20.822,20.441-35.4a7.195,7.195,0,0,1,12.462,0Zm-115.9-2.124H509.44l-34.722-60.138a5.069,5.069,0,0,0-8.781,0l-22.281,38.591-13.862-24.008a3.621,3.621,0,0,0-6.273,0Z" transform="translate(-213.201 -136.184)" fill="#e6e6e6"/>
    <path id="Trazado_887" data-name="Trazado 887" d="M359.423,373.767H231.951a5.317,5.317,0,0,1-5.311-5.311V297.311A5.317,5.317,0,0,1,231.951,292H359.423a5.317,5.317,0,0,1,5.311,5.311v71.145a5.318,5.318,0,0,1-5.311,5.311ZM231.951,294.124a3.19,3.19,0,0,0-3.187,3.187v71.145a3.19,3.19,0,0,0,3.187,3.187H359.423a3.19,3.19,0,0,0,3.187-3.187V297.311a3.19,3.19,0,0,0-3.187-3.187Z" transform="translate(-184.681 -135.595)" fill="#e6e6e6"/>
    <path id="Trazado_888" data-name="Trazado 888" d="M259.26,602.445a3.606,3.606,0,0,0,0,7.212h73.148a3.606,3.606,0,1,0,0-7.212Z" transform="translate(-184.828 -149.873)" fill="#e6e6e6"/>
    <path id="Trazado_889" data-name="Trazado 889" d="M259.26,623.8a3.606,3.606,0,0,0,0,7.212h73.148a3.606,3.606,0,1,0,0-7.212Z" transform="translate(-184.828 -150.922)" fill="#e6e6e6"/>
    <path id="Trazado_890" data-name="Trazado 890" d="M295.923,691.29a22.7,22.7,0,1,1,22.7-22.7h0A22.723,22.723,0,0,1,295.923,691.29Zm0-43.271A20.573,20.573,0,1,0,316.5,668.593h0A20.6,20.6,0,0,0,295.923,648.02Z" transform="translate(-184.917 -157.309)" fill="#e6e6e6"/>
    <path id="Trazado_891" data-name="Trazado 891" d="M490.421,691.484a3.606,3.606,0,0,0,0-7.212H417.273a3.606,3.606,0,0,0,0,7.212Z" transform="translate(-214.373 -157.503)" fill="#e6e6e6"/>
    <path id="Trazado_892" data-name="Trazado 892" d="M490.421,670.13a3.606,3.606,0,0,0,0-7.212H417.273a3.606,3.606,0,1,0,0,7.212Z" transform="translate(-214.373 -157.395)" fill="#e6e6e6"/>
    <path id="Trazado_893" data-name="Trazado 893" d="M453.936,602.445a22.7,22.7,0,1,1-22.7,22.7h0A22.723,22.723,0,0,1,453.936,602.445Zm0,43.27a20.573,20.573,0,1,0-20.573-20.573h0A20.6,20.6,0,0,0,453.936,645.715Z" transform="translate(-215.281 -151.211)" fill="#e6e6e6"/>
    <circle id="Elipse_188" data-name="Elipse 188" cx="53.727" cy="53.727" r="53.727" transform="translate(156.215 77.798)" fill="#007dff" opacity="0.3"/>
    <circle id="Elipse_189" data-name="Elipse 189" cx="35.818" cy="35.818" r="35.818" transform="translate(173.007 95.707)" fill="#007dff" opacity="0.3"/>
    <circle id="Elipse_190" data-name="Elipse 190" cx="24.874" cy="24.874" r="24.874" transform="translate(183.32 101.591)" fill="#007dff"/>
    <circle id="Elipse_191" data-name="Elipse 191" cx="39.719" cy="39.719" r="39.719" transform="translate(71.353 432.237)" fill="#007dff" opacity="0.3"/>
    <circle id="Elipse_192" data-name="Elipse 192" cx="26.48" cy="26.48" r="26.48" transform="translate(84.593 445.863)" fill="#007dff" opacity="0.3"/>
    <circle id="Elipse_193" data-name="Elipse 193" cx="18.389" cy="18.389" r="18.389" transform="translate(92.684 454.174)" fill="#007dff"/>
    <circle id="Elipse_194" data-name="Elipse 194" cx="45.689" cy="45.689" r="45.689" transform="translate(201.047 278.789)" fill="#007dff" opacity="0.3"/>
    <circle id="Elipse_195" data-name="Elipse 195" cx="30.459" cy="30.459" r="30.459" transform="translate(215.579 294.066)" fill="#007dff" opacity="0.3"/>
    <circle id="Elipse_196" data-name="Elipse 196" cx="21.152" cy="21.152" r="21.152" transform="translate(289.819 253.438)" fill="#007dff"/>
    <path id="Trazado_894" data-name="Trazado 894" d="M675.405,538.481l-9.4,15.877a11.854,11.854,0,0,1-18.729,2.2h0a11.854,11.854,0,0,1,1.582-17.84l15.287-11.053c14.679-19.871,23.114-53.643,30.3-90.191l29.87,3.5C716.619,470.864,698.209,504.007,675.405,538.481Z" transform="translate(-244.42 -144.808)" fill="#ffb8b8"/>
    <path id="Trazado_895" data-name="Trazado 895" d="M679.284,447.821l48.572,13.774V376.776l-6.448,2.086a37.311,37.311,0,0,0-24.043,24.1Z" transform="translate(-246.495 -140.322)" fill="#e6e6e6"/>
    <path id="Trazado_896" data-name="Trazado 896" d="M778.593,752.461l-18.124-.725c-5.952-61.254-13.551-116.882-29-145.714-14.959,16.023-18.357,66.645-20.861,135.565H693.048c-18.462-79.426-23.124-135.74,0-189.211h94.243Z" transform="translate(-251.33 -156.836)" fill="#2f2e41"/>
    <path id="Trazado_897" data-name="Trazado 897" d="M711.668,754.8l-31.457,16.071a6.925,6.925,0,0,1-9.5-3.406h0a6.925,6.925,0,0,1,2.777-8.693l4.289-2.585,11.944-17.856,20.357-1.607L713.8,740.3a9,9,0,0,1-2.132,14.508Z" transform="translate(-245.188 -157.769)" fill="#2f2e41"/>
    <path id="Trazado_898" data-name="Trazado 898" d="M775.913,769.908,740.6,770.9a6.926,6.926,0,0,1-7.116-7.159h0a6.925,6.925,0,0,1,6.243-6.656l4.984-.49,18.458-10.99,19.072,7.3,1.829,4.823a9,9,0,0,1-8.16,12.183Z" transform="translate(-253.51 -157.814)" fill="#2f2e41"/>
    <circle id="Elipse_197" data-name="Elipse 197" cx="23.7" cy="23.7" r="23.7" transform="translate(465.195 177.139)" fill="#ffb8b8"/>
    <path id="Trazado_899" data-name="Trazado 899" d="M778.847,375.168l-49.3,18.848c2.871-15.477,2.907-30.058-1.812-43.134l31.535-5.437C756.627,359.04,764.825,368.275,778.847,375.168Z" transform="translate(-252.782 -137.923)" fill="#ffb8b8"/>
    <path id="Trazado_900" data-name="Trazado 900" d="M798.967,565.229c-43.388,8.238-78.326,2.953-106.567-13.049,13.062-45,14.919-94.8,11.5-146.848a25.153,25.153,0,0,1,15.276-24.781l12.371-5.258c6.67,15.157,22.043,6.423,38.422-5.075l20.24,8.943a17.239,17.239,0,0,1,10.248,16.774C796.41,465.077,790.971,539.2,798.967,565.229Z" transform="translate(-253.198 -143.094)" fill="#e6e6e6"/>
    <path id="Trazado_901" data-name="Trazado 901" d="M813.945,555.466l-1.29,18.492a12.787,12.787,0,0,1-13.57,11.871h0a12.787,12.787,0,0,1-10.029-19.538l10.391-16.625c6.139-23.93,1.269-58.4-5.8-94.968l29-7.974C826.739,477.32,822.127,514.951,813.945,555.466Z" transform="translate(-258.954 -145.914)" fill="#ffb8b8"/>
    <path id="Trazado_902" data-name="Trazado 902" d="M767.038,321.6s4.431-9.747-7.089-14.178c0,0-9.747-15.95-29.242-5.317,0,0-13.292,5.317-13.292,19.495s-4.431,16.836-4.431,16.836,6.6-6.769,8.37-12.086,15.555-6.523,20.872-1.206,18.609,4.431,18.609,4.431l-.886,19.495s4.431-11.52,6.2-11.52S769.7,321.6,767.038,321.6Z" transform="translate(-251.283 -135.499)" fill="#2f2e41"/>
    <path id="Trazado_903" data-name="Trazado 903" d="M832.779,447.092l-48.572,13.774V376.047l6.448,2.086a37.311,37.311,0,0,1,24.043,24.1Z" transform="translate(-259.647 -140.282)" fill="#e6e6e6"/>
    <rect id="Rectángulo_238" data-name="Rectángulo 238" width="603.031" height="1.99" transform="translate(129.73 613.016)" fill="#e6e6e6"/>
    <path id="Trazado_904" data-name="Trazado 904" d="M867.108,609.562c13.183,18.635,16.665,124.7,17.441,158.693.02.766.04,1.492.05,2.179h33.37c.408-.726.786-1.443,1.144-2.179,19.779-39.042,8.805-85.854,8.228-88.222,1.5,7.442-5.293,29.013-12.974,49.906C909.682,665.7,869.615,612.806,867.108,609.562Z" transform="translate(-282.021 -157.126)" fill="#e6e6e6"/>
  </g>
</svg>
