<svg xmlns="http://www.w3.org/2000/svg" width="817.867" height="524.121" viewBox="0 0 817.867 524.121">
  <g id="undraw_conference_call_b0w6" transform="translate(0.5 0.5)">
    <rect id="Rectángulo_239" data-name="Rectángulo 239" width="816.867" height="523.158" transform="translate(0.349 0.463)" fill="#e6e6e6"/>
    <rect id="Rectángulo_240" data-name="Rectángulo 240" width="770.15" height="426.591" transform="translate(23.707 66.08)" fill="#fff"/>
    <rect id="Rectángulo_241" data-name="Rectángulo 241" width="816.867" height="34.703" fill="#007dff" stroke="#fff" stroke-width="1"/>
    <circle id="Elipse_198" data-name="Elipse 198" cx="6.432" cy="6.432" r="6.432" transform="translate(19.357 11.31)" fill="#fff"/>
    <circle id="Elipse_199" data-name="Elipse 199" cx="6.432" cy="6.432" r="6.432" transform="translate(43.771 11.31)" fill="#fff"/>
    <circle id="Elipse_200" data-name="Elipse 200" cx="6.432" cy="6.432" r="6.432" transform="translate(68.185 11.31)" fill="#fff"/>
    <rect id="Rectángulo_242" data-name="Rectángulo 242" width="150.63" height="163.42" transform="translate(118.465 101.167)" fill="#e6e6e6"/>
    <rect id="Rectángulo_243" data-name="Rectángulo 243" width="150.63" height="163.42" transform="translate(333.465 101.167)" fill="#e6e6e6"/>
    <rect id="Rectángulo_244" data-name="Rectángulo 244" width="150.63" height="163.42" transform="translate(548.465 101.167)" fill="#e6e6e6"/>
    <rect id="Rectángulo_245" data-name="Rectángulo 245" width="150.63" height="163.42" transform="translate(118.465 294.167)" fill="#e6e6e6"/>
    <rect id="Rectángulo_246" data-name="Rectángulo 246" width="150.63" height="163.42" transform="translate(333.465 294.167)" fill="#e6e6e6"/>
    <rect id="Rectángulo_247" data-name="Rectángulo 247" width="150.63" height="163.42" transform="translate(548.465 294.167)" fill="#e6e6e6"/>
    <circle id="Elipse_201" data-name="Elipse 201" cx="25.462" cy="25.462" r="25.462" transform="translate(151.513 149.058)" fill="#ffb9b9"/>
    <path id="Trazado_905" data-name="Trazado 905" d="M358.421,382.2s3.183,15.118,3.183,16.71,15.118,8.753,15.118,8.753l13.527-2.387,4.774-14.323s-7.957-11.935-7.957-16.71Z" transform="translate(-191.392 -188.19)" fill="#ffb9b9"/>
    <path id="Trazado_906" data-name="Trazado 906" d="M346.286,342.2s8.084-17.516,23.579-13.474,24.253,10.105,24.926,16.168-.337,15.158-.337,15.158-1.684-12.463-12.463-9.768-27.621.674-27.621.674l-2.695,24.253s-3.032-4.379-6.4-1.684S335.507,347.585,346.286,342.2Z" transform="translate(-191.392 -188.19)" fill="#2f2e41"/>
    <path id="Trazado_907" data-name="Trazado 907" d="M449.128,446.657l-6.36-28.65c-3.19-9.55-11.14-17.5-11.14-17.5l-39.24-13.8h-.01a16.479,16.479,0,0,1-11.67,15.4c-11.94,3.97-20.16-9.41-20.16-9.41l-33.17,25.31s-10.34,8.76-9.54,25.47l-1.1,9.3h135.45Z" transform="translate(-191.392 -188.19)" fill="#007dff"/>
    <ellipse id="Elipse_202" data-name="Elipse 202" cx="34.56" cy="36.687" rx="34.56" ry="36.687" transform="translate(356.84 139.297)" fill="#2f2e41"/>
    <circle id="Elipse_203" data-name="Elipse 203" cx="18.181" cy="18.181" r="18.181" transform="translate(403.883 195.139)" fill="#2f2e41"/>
    <path id="Trazado_908" data-name="Trazado 908" d="M409.4,188.971l9.74,25.323-24.674,10.39-2.167-4.911-7.574-17.166Z" fill="#9f616a"/>
    <circle id="Elipse_204" data-name="Elipse 204" cx="21.753" cy="21.753" r="21.753" transform="translate(368.169 162.023)" fill="#9f616a"/>
    <path id="Trazado_909" data-name="Trazado 909" d="M563.535,369.58c13.672-9.123,17.759-11.3,33.431-7.78l.94-22.863-40.5,8.5Z" transform="translate(-191.392 -188.19)" fill="#2f2e41"/>
    <path id="Trazado_910" data-name="Trazado 910" d="M651.438,421.307l-.6.07a.383.383,0,0,0-.05-.06c-2.38-2.38-13.74-6.71-22.21-9.71h-.01c-5.38-1.91-9.59-3.28-9.59-3.28l-10.24-10.53c-2.58,2.9-8.03,5.14-13.21,6.72a103.737,103.737,0,0,1-12.08,2.88h-.01l-2.12,6.77s-24.03,18.19-25.97,20.13h-.01v.02a1.057,1.057,0,0,0-.18.76v.05a88.176,88.176,0,0,0-1.86,17.65h104.64v-6.14C657.938,438.2,651.438,421.307,651.438,421.307Z" transform="translate(-191.392 -188.19)" fill="#575a89"/>
    <path id="Trazado_911" data-name="Trazado 911" d="M843.858,452.777h-51.74l-2.85-28.11-.17-1.71-.35-3.39-1.43-14.17-1.79,15.22-3.78,32.16h-9.4l.35-10.01.35-10.15.15-4.09,1.93-55.64a39.728,39.728,0,0,1,7.93-24.49,30.942,30.942,0,0,1,24.99-12.09,31.84,31.84,0,0,1,25.42,12.53,40.261,40.261,0,0,1,8.31,24.86l.89,33.68Z" transform="translate(-191.392 -188.19)" fill="#2f2e41"/>
    <circle id="Elipse_205" data-name="Elipse 205" cx="22.758" cy="22.758" r="22.758" transform="translate(593.898 159.092)" fill="#fbbebe"/>
    <path id="Trazado_912" data-name="Trazado 912" d="M796.669,386.3s6.5,21.945,0,28.448-8.128,8.941-8.128,8.941l18.694,25.2,32.511-39.827s-22.758-6.5-17.068-24.384Z" transform="translate(-191.392 -188.19)" fill="#fbbebe"/>
    <path id="Trazado_913" data-name="Trazado 913" d="M675.485,264.587h-19.2l-.32-3.29-.29-3.04,8.84-1.11,10.66-1.33.12,3.41Z" fill="#fbbebe"/>
    <path id="Trazado_914" data-name="Trazado 914" d="M868.194,447.254s-3.251-20.32-5.69-28.448-4.877-8.128-4.877-8.128h0v0c-2.87-2.87-9.77-3.38-14.96-3.3-3.64.04-6.44.36-6.44.36l-28.99,30.58-14.6-19.41v-.01a21.246,21.246,0,0,0-3.89.67,25.768,25.768,0,0,0-3.22,1.05,44.18,44.18,0,0,0-12.33,7.91h-.01c-2.1,1.89-3.34,3.28-3.34,3.28a95.186,95.186,0,0,0-7.22,20.97h92.9l.21-4.18v-.008Z" transform="translate(-191.392 -188.19)" fill="#007dff"/>
    <path id="Trazado_915" data-name="Trazado 915" d="M788.948,366.382c14.7-7.924,20.736-7.589,39.014,0l4.876-11.882a8.448,8.448,0,0,0-8.438-8.438H791.7a8.448,8.448,0,0,0-8.438,8.438Z" transform="translate(-191.392 -188.19)" fill="#2f2e41"/>
    <path id="Trazado_916" data-name="Trazado 916" d="M383.181,521.911a6,6,0,0,0-3.477.777,9.07,9.07,0,0,0-2.352,3.1,37.135,37.135,0,0,1-10.116,11.427c-3.006,2.2-6.827,4.948-6.313,9.008a12.175,12.175,0,0,0,1.465,3.8c2.773,5.6,10.34,9.923,9.6,16.311,2.755-4.612-.93-6.893,1.825-11.5,1.312-2.2,3.591-4.676,5.572-3.3.663.462,1.1,1.29,1.789,1.7,1.648.967,3.4-.882,4.86-2.191,5.03-4.515,12.183-3.332,18.442-1.926,2.955.664,6.2,1.536,7.947,4.36,2.3,3.713-2.182,7.723-3.314,11.922a2.288,2.288,0,0,0,2.455,2.847c1.878-.185,4.1-.337,4.214-1.161,2.363.084,5.258-.183,6.271-2.644a10.347,10.347,0,0,0,.485-3.009c.372-4.133,2.126-7.9,3.288-11.837s1.667-8.544-.294-12.031a13.92,13.92,0,0,0-2.569-3.123C411.826,523.671,397.194,521.9,383.181,521.911Z" transform="translate(-191.392 -188.19)" fill="#2f2e41"/>
    <path id="Trazado_917" data-name="Trazado 917" d="M374.4,574.407s2.42,20.169-6.454,21.782,8.068,29.043,8.068,29.043l40.338,4.841-9.682-32.27s-6.454-2.42-2.42-18.555S374.4,574.407,374.4,574.407Z" transform="translate(-191.392 -188.19)" fill="#9f616a"/>
    <circle id="Elipse_206" data-name="Elipse 206" cx="24.203" cy="24.203" r="24.203" transform="translate(176.96 351.123)" fill="#9f616a"/>
    <path id="Trazado_918" data-name="Trazado 918" d="M350.9,645.777c4.28-16.83,10.19-39.5,10.19-39.5s2.3.47,5.92,1a140.121,140.121,0,0,0,15.96,1.45c6.84.19,14.04-.26,19.61-2.19a18.361,18.361,0,0,0,5.79-3.09,11.16,11.16,0,0,0,1.94-2.01c9.68-12.91,13.71,36.3,13.71,36.3l.75,8.04Z" transform="translate(-191.392 -188.19)" fill="#6c63ff"/>
    <path id="Trazado_919" data-name="Trazado 919" d="M428.228,697.777q-.48,0-.96.03l.46-.86C427.888,697.217,428.048,697.5,428.228,697.777Z" transform="translate(-191.392 -188.19)" fill="#ffb8b8"/>
    <path id="Trazado_920" data-name="Trazado 920" d="M384.36,528.243a5.493,5.493,0,0,0-2.83.549,6.6,6.6,0,0,0-1.915,2.194,27.874,27.874,0,0,1-8.235,8.076c-2.447,1.556-5.558,3.5-5.139,6.366a7.962,7.962,0,0,0,1.193,2.688A21.14,21.14,0,0,1,370,561.293l6.728-9.779c1.068-1.552,2.923-3.3,4.536-2.33.54.326.894.912,1.457,1.2,1.341.683,2.768-.623,3.956-1.549,4.094-3.191,9.917-2.355,15.012-1.361,2.405.469,5.047,1.085,6.469,3.081,2.363,3.317-.1,8.11,1.275,11.942a3.521,3.521,0,0,0,1.457-2.325c1.923.059,4.28-.13,5.1-1.869a6.438,6.438,0,0,0,.4-2.127c.3-2.921,1.73-5.586,2.676-8.366s1.357-6.039-.239-8.5a10.288,10.288,0,0,0-2.091-2.207C407.678,529.487,395.767,528.232,384.36,528.243Z" transform="translate(-191.392 -188.19)" fill="#2f2e41"/>
    <path id="Trazado_921" data-name="Trazado 921" d="M382.068,607.077c-5.52-6.31-8.8-15.51-8.95-15.92v-.01s-8.8-5.04-11.22-.2-25.01,16.94-27.43,16.94a.319.319,0,0,1-.06.02c-.96.32-12.98,4.69-16.07,20.96a121.769,121.769,0,0,0-1.34,16.91h65.79c.68-7.13,1.19-13.8,1.39-19.56.29-8.03.01-14.27-1.21-17.49A5.093,5.093,0,0,0,382.068,607.077Z" transform="translate(-191.392 -188.19)" fill="#2f2e41"/>
    <path id="Trazado_922" data-name="Trazado 922" d="M438.638,611.617c-.04-.19-.07-.35-.1-.5a3.721,3.721,0,0,0-.54-1.2.077.077,0,0,1-.01-.03c-4.66-7.22-34.63-17.16-34.63-17.16l-1.12,3.87s.14,3.82.34,9.94c.2,5.73.44,13.47.67,21.97.16,5.55.3,11.43.43,17.27h44.83A261.8,261.8,0,0,0,438.638,611.617Z" transform="translate(-191.392 -188.19)" fill="#2f2e41"/>
    <path id="Trazado_923" data-name="Trazado 923" d="M858.078,645.777l3.43-16.76,3.19-1.35.02.01c.29.11,3.76,1.58,3.76,7.15,0,1.12-.17,5.15-.45,10.95Z" transform="translate(-191.392 -188.19)" fill="#575a89"/>
    <circle id="Elipse_207" data-name="Elipse 207" cx="27.856" cy="27.856" r="27.856" transform="translate(602.802 343.335)" fill="#ffb8b8"/>
    <path id="Trazado_924" data-name="Trazado 924" d="M648.068,387.44l-2.322,47.586-35.98-20.891,4.642-26.7Z" fill="#ffb8b8"/>
    <path id="Trazado_925" data-name="Trazado 925" d="M658.515,437.347l-2.36,20.24h-18.89l-20.5-39.39-5.78-11.09-2.77-1.81,3.21-.73,2.53,1.83,28.31,20.51,4.54-13.63.12-.35,1.14-3.43Z" fill="#007dff"/>
    <path id="Trazado_926" data-name="Trazado 926" d="M805.221,532.1s3.482-17.41,23.213-13.928l-2.321,1.161s18.57-2.321,16.249,8.125c0,0,15.089,9.285,11.607,19.731a118.093,118.093,0,0,0-4.643,18.57l-3.482-3.482s-3.482-23.213-24.374-20.892c-15.669,1.741-22.052,9.14-23.685,14.472a47.087,47.087,0,0,1-2.867,7.295l-1.3.286S786.65,537.908,805.221,532.1Z" transform="translate(-191.392 -188.19)" fill="#2f2e41"/>
    <path id="Trazado_927" data-name="Trazado 927" d="M864.718,627.677l-.02-.01-14.79-13.74v-9.28l-11.42-9-.17,5.47-1.18,37.19-18.99-26.12-12.8-17.6-2.3-3.15.56-2.95-7.09,8.03-25.66,19.25-2.2,1.65a69.984,69.984,0,0,0-6.96,8.12c-.69,1.03-3.83,9.23-7.92,20.24h114.25c.28-5.8.45-9.83.45-10.95C868.478,629.257,865.008,627.787,864.718,627.677Z" transform="translate(-191.392 -188.19)" fill="#2f2e41"/>
    <path id="Trazado_928" data-name="Trazado 928" d="M597.88,528.783h0c-18.876,0-34.178,16.982-34.178,37.93v26.615h8.186l4.739-9.861-1.185,9.861h52.613l4.308-8.965-1.077,8.965h5.924v-20.9C637.21,548.324,619.6,528.783,597.88,528.783Z" transform="translate(-191.392 -188.19)" fill="#2f2e41"/>
    <path id="Trazado_929" data-name="Trazado 929" d="M570.3,645.777h-22.23l-.21-18.13c-.01-.19-.01-.37-.01-.56l4.45-5.01.08-.09,16.99,10.76Z" transform="translate(-191.392 -188.19)" fill="#d0cde1"/>
    <circle id="Elipse_208" data-name="Elipse 208" cx="24.331" cy="24.331" r="24.331" transform="translate(379.133 352.757)" fill="#fbbebe"/>
    <path id="Trazado_930" data-name="Trazado 930" d="M580.907,579.876s7.137,36.983,3.893,40.876,34.388-7.137,34.388-7.137-12.328-25.3-5.839-39.579Z" transform="translate(-191.392 -188.19)" fill="#fbbebe"/>
    <path id="Trazado_931" data-name="Trazado 931" d="M646.918,604.887h-.01a5.586,5.586,0,0,0-2.79-2.72c-4.77-2.01-8.88-3.55-12.26-4.72a25.926,25.926,0,0,0-18.34.57c-.57.23-1.13.48-1.68.76,0,0-23.79,4.53-26.62,3.96-.21-.04-.43-.07-.64-.09a11.2,11.2,0,0,0-1.29-.11,28.5,28.5,0,0,0-15.8,3.92c-7.81,4.53-19.39,12.56-19.63,20.38l-.22.25.22,18.69h104.42c.21-17.91.33-31.37.33-32.28C652.608,610.667,646.918,604.887,646.918,604.887Z" transform="translate(-191.392 -188.19)" fill="#007dff"/>
    <path id="Trazado_932" data-name="Trazado 932" d="M607.6,539.231a17.925,17.925,0,0,0-14.143-7.217h-.671c-12.937,0-23.425,11.707-23.425,26.148h4.335l.7-5.329,1.026,5.329h25.711l2.154-4.508-.539,4.508H607.8q3.54,17.583-10.174,35.165h8.616l4.308-9.017-1.077,9.017H625.9l3.231-20.738C629.132,557.058,620.108,543.888,607.6,539.231Z" transform="translate(-191.392 -188.19)" fill="#2f2e41"/>
    <circle id="Elipse_209" data-name="Elipse 209" cx="12.801" cy="12.801" r="12.801" transform="translate(408.125 327.623)" fill="#2f2e41"/>
  </g>
</svg>
