<svg xmlns="http://www.w3.org/2000/svg" width="941.879" height="544.836" viewBox="0 0 941.879 544.836">
  <g id="undraw_image_viewer_wxce" transform="translate(0 0)">
    <rect id="Rectángulo_237" data-name="Rectángulo 237" width="941.879" height="2.201" transform="translate(0 373.242)" fill="#3f3d56"/>
    <path id="Trazado_850" data-name="Trazado 850" d="M850.157,686.57H222.211a21.055,21.055,0,0,1-21.055-21.055h0q341.445-39.683,670.058,0h0A21.055,21.055,0,0,1,850.157,686.57Z" transform="translate(-169.075 -157.951)" fill="#2f2e41"/>
    <path id="Trazado_851" data-name="Trazado 851" d="M871.213,705.6l-670.058-1.239,77.657-130.667.372-.619V285.1A26.615,26.615,0,0,1,305.8,258.481H762.852A26.615,26.615,0,0,1,789.468,285.1V575.055Z" transform="translate(-169.075 -196.797)" fill="#3f3d56"/>
    <path id="Trazado_852" data-name="Trazado 852" d="M296.5,275.365a8.68,8.68,0,0,0-8.67,8.67V546.607a8.68,8.68,0,0,0,8.67,8.67H758.479a8.68,8.68,0,0,0,8.67-8.67V284.035a8.68,8.68,0,0,0-8.67-8.67Z" transform="translate(-160.379 -195.103)" fill="#fff"/>
    <path id="Trazado_853" data-name="Trazado 853" d="M299.988,561.273a3.726,3.726,0,0,0-3.376,2.163l-23.929,52.019a3.715,3.715,0,0,0,3.375,5.269H779.265a3.715,3.715,0,0,0,3.323-5.378l-26.01-52.019a3.7,3.7,0,0,0-3.323-2.054Z" transform="translate(-161.933 -166.419)" fill="#2f2e41"/>
    <circle id="Elipse_183" data-name="Elipse 183" cx="5.573" cy="5.573" r="5.573" transform="translate(359.677 64.78)" fill="#fff"/>
    <path id="Trazado_854" data-name="Trazado 854" d="M459.883,624.308a3.722,3.722,0,0,0-3.587,2.749l-6,22.294a3.715,3.715,0,0,0,3.587,4.682H568.03a3.715,3.715,0,0,0,3.51-4.931l-7.717-22.294a3.717,3.717,0,0,0-3.511-2.5Z" transform="translate(-144.093 -160.095)" fill="#2f2e41"/>
    <path id="Trazado_855" data-name="Trazado 855" d="M610.388,338.028v4.954H99.732l.384-.618v-4.335Z" transform="translate(10.006 33.913)" fill="#2f2e41"/>
    <path id="Trazado_856" data-name="Trazado 856" d="M347.9,324.912a6.829,6.829,0,0,0-6.723,6.916V488.592a6.829,6.829,0,0,0,6.723,6.916H696.373a6.829,6.829,0,0,0,6.723-6.916V331.829a6.829,6.829,0,0,0-6.723-6.916Z" transform="translate(-124.218 -187.931)" fill="#e6e6e6"/>
    <path id="Trazado_857" data-name="Trazado 857" d="M545.946,492.28H672.8a4.084,4.084,0,0,0,2.888-6.971L594.5,404.122a4.088,4.088,0,0,0-5.775,0l-20.189,20.189a8.564,8.564,0,0,1-12.113,0l-63.235-63.235a4.089,4.089,0,0,0-5.775,0L363.738,484.749a4.084,4.084,0,0,0,2.888,6.971H546.109Z" transform="translate(-152.884 -186.624)" fill="#007dff"/>
    <path id="Trazado_1251" data-name="Trazado 1251" d="M15.687,0A15.687,15.687,0,1,1,0,15.687,15.687,15.687,0,0,1,15.687,0Z" transform="translate(226.487 156.069)" fill="#007dff"/>
    <path id="Trazado_858" data-name="Trazado 858" d="M354.989,383.535a1.121,1.121,0,0,1-1.121-1.12V307.341a1.121,1.121,0,0,1,1.12-1.121h86.278a1.121,1.121,0,0,1,0,2.241H356.109v73.953a1.121,1.121,0,0,1-1.12,1.121Z" transform="translate(-153.754 -192.007)" fill="#3f3d56"/>
    <path id="Trazado_859" data-name="Trazado 859" d="M664.282,384.553a1.12,1.12,0,0,1-1.12-1.121V309.48H578a1.121,1.121,0,0,1,0-2.241h86.278a1.12,1.12,0,0,1,1.12,1.121v75.073a1.12,1.12,0,0,1-1.12,1.12Z" transform="translate(-131.38 -191.905)" fill="#3f3d56"/>
    <path id="Trazado_860" data-name="Trazado 860" d="M441.267,504.717H354.989a1.12,1.12,0,0,1-1.121-1.12V428.523a1.121,1.121,0,1,1,2.241,0v73.953h85.158a1.121,1.121,0,0,1,0,2.241Z" transform="translate(-153.754 -179.85)" fill="#3f3d56"/>
    <path id="Trazado_861" data-name="Trazado 861" d="M664.282,505.735H578a1.12,1.12,0,0,1,0-2.241h85.159V429.542a1.121,1.121,0,0,1,2.241,0v75.074a1.12,1.12,0,0,1-1.121,1.12Z" transform="translate(-131.38 -179.747)" fill="#3f3d56"/>
    <path id="Trazado_862" data-name="Trazado 862" d="M986.634,487.175h0a12.641,12.641,0,0,0,13.868-12.581V447.66l-17.616-2.114-7.2,25.632a12.641,12.641,0,0,0,10.943,16Z" transform="translate(-91.416 -178.029)" fill="#ffb8b8"/>
    <path id="Trazado_863" data-name="Trazado 863" d="M848.391,498.542h0A12.641,12.641,0,0,0,859.545,483.5l-5.243-26.42-17.69,1.355-2.068,26.543a12.641,12.641,0,0,0,13.847,13.561Z" transform="translate(-105.534 -176.872)" fill="#ffb8b8"/>
    <path id="Trazado_864" data-name="Trazado 864" d="M895.3,699.311l20.586.88c-4.4-83.207-3.031-153.591,9.008-200.291,14.983,53.317,20.136,123.285,20.532,201.309l22.451-1.9c9.6-92.393,14.462-177.816,4.228-240.983-32.113-18.657-67.673-18.714-107.1,2.114C864.117,531.2,876.252,612.47,895.3,699.311Z" transform="translate(-102.479 -178.128)" fill="#2f2e41"/>
    <path id="Trazado_865" data-name="Trazado 865" d="M898.058,672.193l-8.735,2.912s-18.441-4.853-13.588,7.764,18.44,10.676,18.44,10.676,16.5,12.617,23.293,2.912l-3.882-20.381Z" transform="translate(-101.479 -155.291)" fill="#2f2e41"/>
    <path id="Trazado_866" data-name="Trazado 866" d="M953.644,672.193l8.735,2.912s18.44-4.853,13.588,7.764-18.44,10.676-18.44,10.676-16.5,12.617-23.293,2.912l3.882-20.381Z" transform="translate(-95.528 -155.291)" fill="#2f2e41"/>
    <circle id="Elipse_185" data-name="Elipse 185" cx="28.89" cy="28.89" r="28.89" transform="translate(758.998 7.507)" fill="#ffb8b8"/>
    <path id="Trazado_867" data-name="Trazado 867" d="M884.848,293.279,928.535,281.3c-11.054-13.552-15.061-28.874-12.683-45.8h-31Z" transform="translate(-100.483 -199.103)" fill="#ffb8b8"/>
    <path id="Trazado_868" data-name="Trazado 868" d="M863.757,484.481c39.035-14.392,77.268-17.072,114.15,0-10.661-70.12-14.039-133.39-2.636-177.395a18.548,18.548,0,0,0-10.415-21.665l-39.092-17.262L888.419,273.8l-31.526,22.882a18.491,18.491,0,0,0-6.334,21.785C867.17,360.308,870.216,417.143,863.757,484.481Z" transform="translate(-104.054 -195.826)" fill="#007dff"/>
    <path id="Trazado_869" data-name="Trazado 869" d="M984.566,463.979,1005,466.092,984.167,319.069A43.385,43.385,0,0,0,954.324,283.8l-2.876-.912,4.228,78.919Z" transform="translate(-93.801 -194.348)" fill="#007dff"/>
    <path id="Trazado_870" data-name="Trazado 870" d="M855.684,476.941l-19.84,5.326L833.11,333.8a43.385,43.385,0,0,1,23.876-39.554l2.695-1.356,8.335,78.591Z" transform="translate(-105.674 -193.345)" fill="#007dff"/>
    <path id="Trazado_871" data-name="Trazado 871" d="M919.328,260.663s23.687-28.715,1.662-49.709c-15.28-14.564-36.949-7.305-48.789-1.493A21.859,21.859,0,0,0,860,225.74c-.789,5.436.513,10.313,8.875,8.082,16.724-4.463,11.709,10.311,11.709,10.311s11.893-.188,11.709,10.311S919.328,260.663,919.328,260.663Z" transform="translate(-102.996 -202.421)" fill="#2f2e41"/>
  </g>
</svg>
