<svg xmlns="http://www.w3.org/2000/svg" xmlns:xlink="http://www.w3.org/1999/xlink" width="873.823" height="589.208" viewBox="0 0 873.823 589.208">
  <defs>
    <linearGradient id="linear-gradient" x1="0.5" y1="1" x2="0.5" gradientUnits="objectBoundingBox">
      <stop offset="0.2" stop-color="gray" stop-opacity="0.4"/>
      <stop offset="0.46" stop-color="gray" stop-opacity="0.502"/>
      <stop offset="1" stop-opacity="0.6"/>
    </linearGradient>
    <linearGradient id="linear-gradient-2" x1="0.5" y1="1" x2="0.5" gradientUnits="objectBoundingBox">
      <stop offset="0" stop-color="gray" stop-opacity="0.251"/>
      <stop offset="0.54" stop-color="gray" stop-opacity="0.122"/>
      <stop offset="1" stop-color="gray" stop-opacity="0.102"/>
    </linearGradient>
  </defs>
  <g id="undraw_working_late_pukg" transform="translate(0.043 0)">
    <path id="Trazado_1" data-name="Trazado 1" d="M919.137,611.753c0,34.935-192.3,163.581-432.47,163.581S57.45,638.24,57.45,603.305s189.051,45.5,429.218,45.5S919.137,576.787,919.137,611.753Z" transform="translate(-47.743 -186.126)" fill="#3f3d56"/>
    <path id="Trazado_2" data-name="Trazado 2" d="M918.89,487.513v1.4c-.528,14.519-8.614,28.959-23.369,39.155-15.653,10.8-36.643,16.487-58.193,20.117-3.37.567-6.755,1.079-10.133,1.575-1.724.236-3.441.472-5.149.693-47.973,6.3-96.955,7.5-145.708,8.661-51,1.26-102.041,2.5-153.093,3.149l-10.125.118c-77.46.835-154.888.134-232.065-4.26-23.951-1.354-48.139-3.149-71.885-6.173q-5.078-.622-10.125-1.362c-31.494-4.512-62.051-11.432-89.892-22.668a200.337,200.337,0,0,1-19.259-8.9C72.406,509.74,57.659,498,50.36,483.592a49.7,49.7,0,0,1-5.039-27.337,63.947,63.947,0,0,1,1.756-10.133,90.293,90.293,0,0,1,9.944-23.392c11.369-19.227,28.447-36.462,43.171-54.516,31.431-38.478,51.9-87.1,22.9-126.536-8.322-11.33-20.353-21.259-27.132-33.108a53.32,53.32,0,0,1-6.645-20.8,74.851,74.851,0,0,1-.417-10.133,140.566,140.566,0,0,1,2.953-23.495c4.724-24.187,13.55-50.265,40.809-65.35,18.605-10.3,42.32-13.5,66.366-12.889q5.063.118,10.125.472c9.22.606,18.385,1.724,27.235,3.149,54.674,8.732,105.135,26.975,156.077,43.446,38.785,12.535,78.956,24.258,120.638,29.849,3.37.449,6.74.866,10.125,1.228,9.771,1.071,19.629,1.779,29.565,2.071,49.454,1.417,107.151-9.291,139.991-37.1,31.722-26.88,91.215-29.045,134.393-12.991l.646.244q4.874,1.858,9.448,4c31.817,14.96,53.131,40.58,56.138,67.39a58.494,58.494,0,0,1,.268,10.031.423.423,0,0,1,0,.1c-2.063,32.982-29.022,60.681-56.4,88.428-3.386,3.425-6.779,6.85-10.133,10.3a362.889,362.889,0,0,0-24.951,27.762,130.211,130.211,0,0,0-9.385,13.464,86.965,86.965,0,0,0-6.669,13.558,56.4,56.4,0,0,0-3.677,15.2,39.736,39.736,0,0,0,3.937,21.731l.071.157c7.307,14.487,22.77,24.754,40.675,33.856,3.3,1.685,6.692,3.323,10.133,4.945,19.416,9.165,40.336,17.676,56.241,28.99a84.324,84.324,0,0,1,11.952,10.078,60.9,60.9,0,0,1,4.22,4.858,42.627,42.627,0,0,1,9.2,25.739C918.89,487.088,918.89,487.3,918.89,487.513Z" transform="translate(-45.11 -75.83)" fill="#007dff"/>
    <path id="Trazado_3" data-name="Trazado 3" d="M918.89,487.513v1.4c-.528,14.519-8.614,28.959-23.369,39.155-15.653,10.8-36.643,16.487-58.193,20.117-3.37.567-6.755,1.079-10.133,1.575-1.724.236-3.441.472-5.149.693-47.973,6.3-96.955,7.5-145.708,8.661-51,1.26-102.041,2.5-153.093,3.149l-10.125.118c-77.46.835-154.888.134-232.065-4.26-23.951-1.354-48.139-3.149-71.885-6.173q-5.078-.622-10.125-1.362c-31.494-4.512-62.051-11.432-89.892-22.668a200.337,200.337,0,0,1-19.259-8.9C72.406,509.74,57.659,498,50.36,483.592a49.7,49.7,0,0,1-5.039-27.337,63.947,63.947,0,0,1,1.756-10.133,90.293,90.293,0,0,1,9.944-23.392c11.369-19.227,28.447-36.462,43.171-54.516,31.431-38.478,51.9-87.1,22.9-126.536-8.322-11.33-20.353-21.259-27.132-33.108a53.32,53.32,0,0,1-6.645-20.8,74.851,74.851,0,0,1-.417-10.133,140.566,140.566,0,0,1,2.953-23.495c4.724-24.187,13.55-50.265,40.809-65.35,18.605-10.3,42.32-13.5,66.366-12.889q5.063.118,10.125.472c9.22.606,18.385,1.724,27.235,3.149,54.674,8.732,105.135,26.975,156.077,43.446,38.785,12.535,78.956,24.258,120.638,29.849,3.37.449,6.74.866,10.125,1.228,9.771,1.071,19.629,1.779,29.565,2.071,49.454,1.417,107.151-9.291,139.991-37.1,31.722-26.88,91.215-29.045,134.393-12.991l.646.244q4.874,1.858,9.448,4c31.817,14.96,53.131,40.58,56.138,67.39a58.494,58.494,0,0,1,.268,10.031.423.423,0,0,1,0,.1c-2.063,32.982-29.022,60.681-56.4,88.428-3.386,3.425-6.779,6.85-10.133,10.3a362.889,362.889,0,0,0-24.951,27.762,130.211,130.211,0,0,0-9.385,13.464,86.965,86.965,0,0,0-6.669,13.558,56.4,56.4,0,0,0-3.677,15.2,39.736,39.736,0,0,0,3.937,21.731l.071.157c7.307,14.487,22.77,24.754,40.675,33.856,3.3,1.685,6.692,3.323,10.133,4.945,19.416,9.165,40.336,17.676,56.241,28.99a84.324,84.324,0,0,1,11.952,10.078,60.9,60.9,0,0,1,4.22,4.858,42.627,42.627,0,0,1,9.2,25.739C918.89,487.088,918.89,487.3,918.89,487.513Z" transform="translate(-45.11 -75.83)" fill="url(#linear-gradient)"/>
    <path id="Trazado_4" data-name="Trazado 4" d="M1048.533,118.424V284.366c-3.385,3.433-6.779,6.858-10.133,10.306V114.18Z" transform="translate(-256.339 -83.985)" fill="#3f3d56"/>
    <path id="Trazado_5" data-name="Trazado 5" d="M905.54,215.191a.441.441,0,0,1,0,.1H101.14a74.964,74.964,0,0,1-.417-10.133H905.272a58.475,58.475,0,0,1,.268,10.031Z" transform="translate(-56.939 -103.332)" fill="#3f3d56"/>
    <circle id="Elipse_1" data-name="Elipse 1" cx="2.953" cy="2.953" r="2.953" transform="translate(187.042 53.587)" fill="#e7effd"/>
    <circle id="Elipse_2" data-name="Elipse 2" cx="2.953" cy="2.953" r="2.953" transform="translate(92.481 47.674)" fill="#e7effd"/>
    <circle id="Elipse_3" data-name="Elipse 3" cx="1.268" cy="1.268" r="1.268" transform="translate(222.08 55.272)" fill="#e7effd"/>
    <circle id="Elipse_4" data-name="Elipse 4" cx="1.268" cy="1.268" r="1.268" transform="translate(127.093 52.32)" fill="#e7effd"/>
    <circle id="Elipse_5" data-name="Elipse 5" cx="1.268" cy="1.268" r="1.268" transform="translate(125.834 140.857)" fill="#e7effd"/>
    <circle id="Elipse_6" data-name="Elipse 6" cx="1.268" cy="1.268" r="1.268" transform="translate(710.499 73.948)" fill="#e7effd"/>
    <circle id="Elipse_7" data-name="Elipse 7" cx="1.268" cy="1.268" r="1.268" transform="translate(281.178 75.114)" fill="#e7effd"/>
    <circle id="Elipse_8" data-name="Elipse 8" cx="1.268" cy="1.268" r="1.268" transform="translate(648.022 72.578)" fill="#e7effd"/>
    <circle id="Elipse_9" data-name="Elipse 9" cx="1.268" cy="1.268" r="1.268" transform="translate(807.595 76.381)" fill="#e7effd"/>
    <path id="Trazado_6" data-name="Trazado 6" d="M931,549.781v1.4c-.4,14.629-8.5,29.219-23.369,39.486-15.653,10.8-36.643,16.487-58.193,20.117-3.37.567-6.755,1.079-10.133,1.575-1.724.236-3.441.472-5.149.693-11.81,1.575-23.684,2.779-35.6,3.787-15.983,1.354-32.045,2.291-48.123,2.984-20.644.906-41.328,1.417-61.988,1.929-40.383.992-80.8,1.984-121.252,2.669l-14.353.236-17.511.236-10.125.118c-63.776.677-127.457.331-191.028-2.268q-6.346-.252-12.668-.551-14.172-.622-28.345-1.441c-18.936-1.071-38.021-2.425-56.9-4.433q-7.511-.787-14.96-1.74-5.078-.622-10.125-1.362-5.622-.787-11.2-1.716c-27.557-4.5-54.162-11.023-78.7-20.959A204.192,204.192,0,0,1,102,581.621V443.047c3.5-4.055,6.968-8.11,10.306-12.212,4.015-4.929,7.874-10.007,11.417-15.22h76.216V368.65H334.183V471.9H552.838V390.019H805.107a88.176,88.176,0,0,0-6.606,13.109v.441h-.291a56.392,56.392,0,0,0-3.677,15.2,39.737,39.737,0,0,0,3.937,21.731v.331l.071.157c7.307,14.487,22.77,24.754,40.675,33.856,3.3,1.685,6.693,3.323,10.133,4.945,19.219,9.07,39.927,17.511,55.768,28.66l.472.331a84.723,84.723,0,0,1,11.661,9.747c.118.11.22.221.323.331a60.9,60.9,0,0,1,4.22,4.858,42.683,42.683,0,0,1,9.2,25.408C931,549.356,931,549.568,931,549.781Z" transform="translate(-57.217 -138.097)" fill="#007dff"/>
    <path id="Trazado_7" data-name="Trazado 7" d="M931,549.781v1.4c-.4,14.629-8.5,29.219-23.369,39.486-15.653,10.8-36.643,16.487-58.193,20.117-3.37.567-6.755,1.079-10.133,1.575-1.724.236-3.441.472-5.149.693-11.81,1.575-23.684,2.779-35.6,3.787-15.983,1.354-32.045,2.291-48.123,2.984-20.644.906-41.328,1.417-61.988,1.929-40.383.992-80.8,1.984-121.252,2.669l-14.353.236-17.511.236-10.125.118c-63.776.677-127.457.331-191.028-2.268q-6.346-.252-12.668-.551-14.172-.622-28.345-1.441c-18.936-1.071-38.021-2.425-56.9-4.433q-7.511-.787-14.96-1.74-5.078-.622-10.125-1.362-5.622-.787-11.2-1.716c-27.557-4.5-54.162-11.023-78.7-20.959A204.192,204.192,0,0,1,102,581.621V443.047c3.5-4.055,6.968-8.11,10.306-12.212,4.015-4.929,7.874-10.007,11.417-15.22h76.216V368.65H334.183V471.9H552.838V390.019H805.107a88.176,88.176,0,0,0-6.606,13.109v.441h-.291a56.392,56.392,0,0,0-3.677,15.2,39.737,39.737,0,0,0,3.937,21.731v.331l.071.157c7.307,14.487,22.77,24.754,40.675,33.856,3.3,1.685,6.693,3.323,10.133,4.945,19.219,9.07,39.927,17.511,55.768,28.66l.472.331a84.723,84.723,0,0,1,11.661,9.747c.118.11.22.221.323.331a60.9,60.9,0,0,1,4.22,4.858,42.683,42.683,0,0,1,9.2,25.408C931,549.356,931,549.568,931,549.781Z" transform="translate(-57.217 -138.097)" opacity="0.3"/>
    <rect id="Rectángulo_2" data-name="Rectángulo 2" width="22.518" height="15.196" transform="translate(69.821 296.667)" opacity="0.4"/>
    <rect id="Rectángulo_3" data-name="Rectángulo 3" width="22.518" height="15.196" transform="translate(105.851 296.667)" opacity="0.4"/>
    <rect id="Rectángulo_4" data-name="Rectángulo 4" width="22.518" height="15.196" transform="translate(519.55 265.433)" opacity="0.4"/>
    <rect id="Rectángulo_5" data-name="Rectángulo 5" width="22.518" height="15.196" transform="translate(580.341 265.433)" opacity="0.4"/>
    <rect id="Rectángulo_6" data-name="Rectángulo 6" width="22.518" height="15.196" transform="translate(645.629 265.433)" opacity="0.4"/>
    <rect id="Rectángulo_7" data-name="Rectángulo 7" width="22.518" height="15.196" transform="translate(519.55 311.871)" opacity="0.4"/>
    <rect id="Rectángulo_8" data-name="Rectángulo 8" width="22.518" height="15.196" transform="translate(580.341 311.871)" opacity="0.4"/>
    <rect id="Rectángulo_9" data-name="Rectángulo 9" width="22.518" height="15.196" transform="translate(645.629 311.871)" fill="#007dff"/>
    <rect id="Rectángulo_10" data-name="Rectángulo 10" width="22.518" height="15.196" transform="translate(519.55 358.301)" opacity="0.4"/>
    <rect id="Rectángulo_11" data-name="Rectángulo 11" width="22.518" height="15.196" transform="translate(580.341 358.301)" opacity="0.4"/>
    <rect id="Rectángulo_12" data-name="Rectángulo 12" width="22.518" height="15.196" transform="translate(645.629 358.301)" opacity="0.4"/>
    <rect id="Rectángulo_13" data-name="Rectángulo 13" width="22.518" height="15.196" transform="translate(519.55 404.739)" opacity="0.4"/>
    <rect id="Rectángulo_14" data-name="Rectángulo 14" width="22.518" height="15.196" transform="translate(580.341 404.739)" opacity="0.4"/>
    <rect id="Rectángulo_15" data-name="Rectángulo 15" width="22.518" height="15.196" transform="translate(645.629 404.739)" opacity="0.4"/>
    <rect id="Rectángulo_16" data-name="Rectángulo 16" width="22.518" height="15.196" transform="translate(519.55 451.177)" opacity="0.4"/>
    <rect id="Rectángulo_17" data-name="Rectángulo 17" width="22.518" height="15.196" transform="translate(580.341 451.177)" opacity="0.4"/>
    <rect id="Rectángulo_18" data-name="Rectángulo 18" width="22.518" height="15.196" transform="translate(645.629 451.177)" opacity="0.4"/>
    <path id="Trazado_8" data-name="Trazado 8" d="M981.951,413a56.394,56.394,0,0,0-3.677,15.2H965.92V413Z" transform="translate(-240.926 -147.528)" opacity="0.4"/>
    <rect id="Rectángulo_19" data-name="Rectángulo 19" width="22.518" height="15.196" transform="translate(724.994 311.871)" fill="#007dff"/>
    <rect id="Rectángulo_20" data-name="Rectángulo 20" width="22.518" height="15.196" transform="translate(724.994 358.301)" opacity="0.4"/>
    <rect id="Rectángulo_21" data-name="Rectángulo 21" width="22.518" height="15.196" transform="translate(724.994 404.739)" opacity="0.4"/>
    <rect id="Rectángulo_22" data-name="Rectángulo 22" width="22.518" height="15.196" transform="translate(724.994 451.177)" opacity="0.4"/>
    <rect id="Rectángulo_23" data-name="Rectángulo 23" width="22.518" height="15.196" transform="translate(194.782 247.701)" opacity="0.4"/>
    <rect id="Rectángulo_24" data-name="Rectángulo 24" width="22.518" height="15.196" transform="translate(194.782 281.77)" fill="#007dff"/>
    <rect id="Rectángulo_25" data-name="Rectángulo 25" width="22.518" height="15.196" transform="translate(194.782 315.831)" opacity="0.4"/>
    <rect id="Rectángulo_26" data-name="Rectángulo 26" width="22.518" height="15.196" transform="translate(194.782 349.9)" opacity="0.4"/>
    <rect id="Rectángulo_27" data-name="Rectángulo 27" width="22.518" height="15.196" transform="translate(194.782 383.961)" opacity="0.4"/>
    <rect id="Rectángulo_28" data-name="Rectángulo 28" width="22.518" height="15.196" transform="translate(194.782 418.029)" opacity="0.4"/>
    <rect id="Rectángulo_29" data-name="Rectángulo 29" width="22.518" height="15.196" transform="translate(194.782 452.09)" opacity="0.4"/>
    <rect id="Rectángulo_30" data-name="Rectángulo 30" width="22.518" height="15.196" transform="translate(69.821 336.381)" opacity="0.4"/>
    <rect id="Rectángulo_31" data-name="Rectángulo 31" width="22.518" height="15.196" transform="translate(105.851 336.381)" opacity="0.4"/>
    <rect id="Rectángulo_32" data-name="Rectángulo 32" width="22.518" height="15.196" transform="translate(69.821 376.095)" opacity="0.4"/>
    <rect id="Rectángulo_33" data-name="Rectángulo 33" width="22.518" height="15.196" transform="translate(105.851 376.095)" opacity="0.4"/>
    <rect id="Rectángulo_34" data-name="Rectángulo 34" width="22.518" height="15.196" transform="translate(69.821 415.809)" opacity="0.4"/>
    <rect id="Rectángulo_35" data-name="Rectángulo 35" width="22.518" height="15.196" transform="translate(105.851 415.809)" opacity="0.4"/>
    <rect id="Rectángulo_36" data-name="Rectángulo 36" width="112.576" height="13.582" transform="translate(321.987 351.514)" opacity="0.4"/>
    <rect id="Rectángulo_37" data-name="Rectángulo 37" width="112.576" height="13.582" transform="translate(321.987 394.85)" opacity="0.4"/>
    <rect id="Rectángulo_38" data-name="Rectángulo 38" width="112.576" height="13.582" transform="translate(321.987 438.194)" opacity="0.4"/>
    <path id="Trazado_9" data-name="Trazado 9" d="M250.725,76.392V551.954q-5.078-.622-10.125-1.362V75.92C243.978,75.983,247.348,76.156,250.725,76.392Z" transform="translate(-86.689 -75.849)" fill="#3f3d56"/>
    <path id="Trazado_10" data-name="Trazado 10" d="M649.625,174.816V583.067l-10.125.118V173.58Q644.555,174.265,649.625,174.816Z" transform="translate(-171.514 -96.616)" fill="#3f3d56"/>
    <path id="Trazado_11" data-name="Trazado 11" d="M905.534,556.263H45.39a63.947,63.947,0,0,1,1.756-10.133H893.614A83.359,83.359,0,0,1,905.534,556.263Z" transform="translate(-45.179 -175.838)" fill="#3f3d56"/>
    <path id="Trazado_12" data-name="Trazado 12" d="M1038.4,503.06c3.3,1.685,6.693,3.323,10.133,4.945V639.036c-3.37.567-6.755,1.079-10.133,1.575Z" transform="translate(-256.339 -166.679)" fill="#3f3d56"/>
    <path id="Trazado_13" data-name="Trazado 13" d="M336.19,229.287h-1.937V227.35h-.346v1.937H331.97v.346h1.937v1.937h.346v-1.937h1.937Z" transform="translate(-70.601 -48.345)" fill="#e7effd"/>
    <path id="Trazado_14" data-name="Trazado 14" d="M847.47,178.157h-1.937V176.22h-.354v1.937H843.25v.346h1.929v1.937h.354V178.5h1.937Z" transform="translate(-179.323 -37.473)" fill="#e7effd"/>
    <path id="Trazado_15" data-name="Trazado 15" d="M394.46,168.207h-1.937V166.27h-.354v1.937H390.24v.354h1.929v1.929h.354v-1.929h1.937Z" transform="translate(-82.992 -35.357)" fill="#e7effd"/>
    <circle id="Elipse_10" data-name="Elipse 10" cx="1.268" cy="1.268" r="1.268" transform="translate(307.248 255.378)" fill="#e7effd"/>
    <circle id="Elipse_11" data-name="Elipse 11" cx="1.268" cy="1.268" r="1.268" transform="translate(596.34 142.125)" fill="#e7effd"/>
    <circle id="Elipse_12" data-name="Elipse 12" cx="1.268" cy="1.268" r="1.268" transform="translate(723.726 202.161)" fill="#e7effd"/>
    <circle id="Elipse_13" data-name="Elipse 13" cx="1.268" cy="1.268" r="1.268" transform="translate(524.227 213.034)" fill="#e7effd"/>
    <path id="Trazado_16" data-name="Trazado 16" d="M678.8,534.846s-27.014,6.535-37.706,18.763c-3.582,4.086-8.9,7.031-14.385,9.133V544.294c6.181-10.377,12.409-21.92,12.409-21.92.283-.567,2.535-8.527,2.535-8.527,5.071-3.984-.283-17.9-.283-17.9s3.1-8.811,1.409-10.519-.283-6.252,1.126-8.244,1.126-4.551,1.126-6.252-2.252-4.267-5.913-5.685.283-3.693,2.535-4.267,2.819-5.968.283-8.811.283-4.543,1.685-7.669-4.527-2.559-4.527-2.559V413.2h0s-1.693-9.377-3.378-25.865-8.165-18.188-8.165-18.188a74.163,74.163,0,0,1-10.133-3.984,69.411,69.411,0,0,0-10.692-3.976,55.039,55.039,0,0,1-13.795-1.905,42.148,42.148,0,0,0-9.409-2.039l-1.016-.5a36.872,36.872,0,0,1-17.078-18.109c-.173-.394-.331-.787-.488-1.165a39.754,39.754,0,0,0,4.5-5.968v3.291h0v.071c4.488-7.929,17.511-9.74,18.747-18.794a9.434,9.434,0,0,0,.087-1.244v-.968c-.165-2.527-1.031-5.047-1.2-7.6a14.589,14.589,0,0,1,0-2.2v.047c.583-7.031,5.882-13.149,8.307-19.975a23.944,23.944,0,0,0,1.268-5.685v-.055c.063-.583.1-1.173.118-1.764v-1.661a26.6,26.6,0,0,0-8.779-19.211c-4.488-3.9-10.417-6.346-13.527-11.44-1.449-2.362-2.157-5.165-3.74-7.448-2.976-4.315-8.44-6.071-13.613-6.693s-10.488-.417-15.432-2.039c-3.512-1.15-6.693-3.189-10.236-4.212a19.581,19.581,0,0,0-21.03,7.582c-1.866,2.724-3.086,5.984-5.606,8.11-5.157,4.362-13.9,2.472-18.424,7.5-2.48,2.764-2.764,6.527-2.464,10.369v.142a8.724,8.724,0,0,0,.087.89v.417a1.3,1.3,0,0,0,.055.449c.157,1.378.354,2.748.527,4.071a5.3,5.3,0,0,0,.071.606l.142,1.236a8.647,8.647,0,0,0,.079.9c.032.3.055.787.079,1.118a7.786,7.786,0,0,0,.055.882,60.753,60.753,0,0,1-6.456,30.313c-4.26,8.354-10.59,16.054-11.692,25.384a27.353,27.353,0,0,0-.126,4.606v.543c0,.181.047.551.071.827s.063.638.1.953a4.27,4.27,0,0,0,.071.543c.055.417.118.835.189,1.26l.047.268c1.118,6.362,3.653,12.6,5,19.022a51.445,51.445,0,0,1,1.008,7.189.1.1,0,0,0,0,.047c.047.787.087,1.535.11,2.307V364.6a49.976,49.976,0,0,1-6.559,2.016c-3.937.567-15.487,10.8-14.645,13.385s-5.165,20.471-5.33,21.014h0l-9.448,65.35s-5.015,4.834-3.449,7.96-.307,8.527-.307,8.527-8.472,3.693-6.59,5.968,1.024,6.535-.268,9.377-3.409,7.96,0,8.81.583,11.944.583,11.944,11.881-1.37,11.023,5.685c-.283,2.244,8.307,8.417,11.889,10.889v33.966a103.817,103.817,0,0,1-14.07-4.779c-7.314-3.409-48.406-9.944-57.414,9.669s12.385,45.761,17.731,48.6c0,0,5.071,3.976,6.2,5.968s7.6,2.559,7.6,2.559,6.756,3.149,8.44,4.826c1.244,1.26,11.535,4.527,23.731,7.086h0s-9.85,22.676,6.22,20.81,23.9-9.779,35.226-9.779c4.527,0,12.936-.638,21.4-1.394a56.87,56.87,0,0,1,6.3,1.488,80.938,80.938,0,0,0,14.629,3.15s12.669,6.818,19.424,5.11a4.29,4.29,0,0,0,1.527-.787h.158c1.228-.307,2.622-1.575,4.071-3.488,8.448.866,18.109,2.094,21.7,3.5,7,2.7,57.067-1.039,57.067-1.039s32.344.638,41.612,3.441,5.976-28.62-11.125-32.156a70.175,70.175,0,0,0-13.865-1.37,31.09,31.09,0,0,0,3.236-3.937c6.157-.559,10.236-.905,10.236-.905s16.322-7.96,25.613-12.794a58.437,58.437,0,0,0,15.747-12.5s8.157-5.118,11.535-7.086,5.063-8.527,5.063-8.527C743.814,527.161,678.8,534.846,678.8,534.846ZM605.515,462.11v-2.866c.913.646.779,1.661,0,2.858Zm.268,20.1c.685.9,1.346,1.716,1.819,2.362,1.819,2.362-1.472,3.464-1.236,7.377.055.874.134,2.094.213,3.449h0c-.346-5.645-.63-10.291-.8-13.2Z" transform="translate(-115.602 -107.179)" fill="url(#linear-gradient-2)"/>
    <path id="Trazado_17" data-name="Trazado 17" d="M459.3,663.142s-15.747-3.661-23.077-7.039-48.407-9.85-57.414,9.574,12.385,45.3,17.731,48.123,57.414-35.754,57.414-35.754l41.068,17.322,7.874-26.88Z" transform="translate(-115.614 -198.414)" fill="#65617d"/>
    <rect id="Rectángulo_39" data-name="Rectángulo 39" width="178.784" height="62.193" rx="31.097" transform="translate(361.063 470.074)" fill="#65617d"/>
    <path id="Trazado_18" data-name="Trazado 18" d="M682.484,703.953a31.029,31.029,0,0,1-5.181,17.2,31.487,31.487,0,0,1-3.937,4.8,31,31,0,0,1-21.991,9.11H534.8a31.1,31.1,0,0,1,0-62.2H651.384a31.1,31.1,0,0,1,31.1,31.093Z" transform="translate(-142.637 -202.787)" opacity="0.1"/>
    <path id="Trazado_19" data-name="Trazado 19" d="M575.108,714.66s-17.928,4.606-32.557,4.4-83.058,28.227-83.058,28.227-9.85,22.455,6.22,20.6,23.9-9.653,35.226-9.653,46.973-3.937,46.973-3.937l34.3-25.337Z" transform="translate(-132.601 -211.675)" fill="#fbbebe"/>
    <path id="Trazado_20" data-name="Trazado 20" d="M598.588,423.835l-32.156,6.338-2.087.417s-25.424-6.756-26.266-7.322-23.92-31.659-23.92-31.659,11.669.126,20.833-5.157c.331-.189.654-.394.976-.591a20.314,20.314,0,0,0,8.661-10.621c.165-.465.307-.945.441-1.449a28.567,28.567,0,0,0-.268-13.842c-3.149-13.125,4.094-16.739,13.692-16.424,13.865.457,32.738,9.11,32.738,9.11a38.477,38.477,0,0,0,2.968,12.834c.15.378.315.787.488,1.15a36.643,36.643,0,0,0,17.078,17.912l1.016.5c1.024.488,2.1.953,3.22,1.37C640.522,395.7,598.588,423.835,598.588,423.835Z" transform="translate(-144.861 -132.75)" fill="#fbbebe"/>
    <path id="Trazado_21" data-name="Trazado 21" d="M602.809,366.619a40.557,40.557,0,0,1-50.06,8.622c1.386-4.031,1.646-9.047.173-15.29-7.6-32.085,46.454-7.315,46.454-7.315A38.995,38.995,0,0,0,602.809,366.619Z" transform="translate(-152.948 -132.752)" opacity="0.1"/>
    <path id="Trazado_22" data-name="Trazado 22" d="M607.478,325.709a40.25,40.25,0,0,1-6.141,21.44,39.672,39.672,0,0,1-4.5,5.913,40.3,40.3,0,0,1-27.447,13.07c-.787.055-1.63.079-2.449.079a40.525,40.525,0,1,1,40.525-40.525Z" transform="translate(-147.468 -120.343)" fill="#fbbebe"/>
    <path id="Trazado_23" data-name="Trazado 23" d="M598.588,434.934l-32.156,6.338-2.087.417s-25.424-6.755-26.266-7.322-23.92-31.659-23.92-31.659,11.669.126,20.833-5.157c.331-.189.654-.394.976-.591A37.745,37.745,0,0,0,563.4,408.951a39.621,39.621,0,0,0,5.748-.417c4.519-.693,9.078-1.142,13.629-1.575,8.716-.913,22.046-3.559,29.046-11.259l1.016.5c1.023.488,2.1.953,3.22,1.37C640.522,406.794,598.588,434.934,598.588,434.934Z" transform="translate(-144.861 -143.849)" opacity="0.1"/>
    <path id="Trazado_24" data-name="Trazado 24" d="M624.63,517.229c.276,6.2,4.787,75.987,4.787,75.987H488.977l.953-43.942.787-35.147.252-11.535,1.126-39.958-4.071-3.59L465.9,439.549h0c.165-.52,6.165-18.306,5.33-20.81s10.7-12.661,14.645-13.228a51.279,51.279,0,0,0,6.6-2.008c6.637-2.362,15.5-5.763,16.471-5.228,1.378.74,15.188-.543,15.747-.6h0a37.669,37.669,0,0,0,28.392,13.094,38.576,38.576,0,0,0,5.724-.457c4.519-.693,9.078-1.142,13.629-1.614,9.157-.953,23.392-3.827,30.061-12.44a42.612,42.612,0,0,1,9.409,2.016,55.854,55.854,0,0,0,13.794,1.89,70.005,70.005,0,0,1,10.692,3.937,74.792,74.792,0,0,0,10.133,3.937s6.472,1.685,8.165,18.007,3.4,25.613,3.4,25.613L624.63,480.641S624.355,511.009,624.63,517.229Z" transform="translate(-134.599 -143.968)" fill="#007dff"/>
    <path id="Trazado_25" data-name="Trazado 25" d="M419.433,529.45l4.921,7.881,18.432,6.5,12.668-23.1-11.676-7.881-18.715-7.315-10.692,6.189Z" transform="translate(-88.123 -107.499)" fill="#fbbebe"/>
    <path id="Trazado_26" data-name="Trazado 26" d="M665.032,652.154s26.172-1.968,36.872-14.07S739.61,619.51,739.61,619.51s65.012-7.6,39.368,49.816c0,0-1.685,6.472-5.063,8.44s-11.535,7.039-11.535,7.039l-99.86-8.724Z" transform="translate(-176.409 -191.371)" fill="#65617d"/>
    <path id="Trazado_27" data-name="Trazado 27" d="M702.507,706.088a31.029,31.029,0,0,1-5.181,17.2c-16.8,1.488-54.012,4.984-61.8,7.157-9.566,2.653-28.927-1.968-31.045-2.488l-.2-.047s-3.732-11.322-5.511-18.566c-.787-3.291-1.2-5.74-.685-5.921,1.693-.559,17.172-4.787,16.889-2.362S661.43,682.9,661.43,682.9l1.433,18.015C667.611,706.347,702.507,698.269,702.507,706.088Z" transform="translate(-162.659 -204.921)" opacity="0.1"/>
    <path id="Trazado_28" data-name="Trazado 28" d="M751.089,691.259l-1.968,7.322a58.339,58.339,0,0,1-15.747,12.377c-9.291,4.787-25.613,12.669-25.613,12.669s-59.941,5.063-70.074,7.874-31.242-2.535-31.242-2.535-7.874-23.92-6.189-24.487,17.164-4.779,16.889-2.362S663.6,683.96,663.6,683.96Z" transform="translate(-163.119 -205.147)" fill="#65617d"/>
    <path id="Trazado_29" data-name="Trazado 29" d="M579.92,766.031s29.463,2.055,36.47,4.724,57.067-1.024,57.067-1.024,32.344.63,41.612,3.4,5.976-28.345-11.125-31.833-41.2,1.646-41.2,1.646-27.2-3.5-30.494-3.937-25.022.2-25.022.2Z" transform="translate(-158.845 -216.82)" fill="#fbbebe"/>
    <path id="Trazado_30" data-name="Trazado 30" d="M432.87,674.72s38.943,3.5,49.65,9.889Z" transform="translate(-127.575 -203.182)" opacity="0.1"/>
    <path id="Trazado_31" data-name="Trazado 31" d="M729.906,642.28s-30.494,7.417-42.446,18.33Z" transform="translate(-181.713 -196.284)" opacity="0.1"/>
    <path id="Trazado_32" data-name="Trazado 32" d="M435.75,663.47c.622.2,17.928,2.472,17.511,4.118S435.75,663.47,435.75,663.47Z" transform="translate(-128.187 -200.79)" opacity="0.1"/>
    <path id="Trazado_33" data-name="Trazado 33" d="M401.21,713.9l2.252,8.448s5.063,3.937,6.189,5.905,7.6,2.535,7.6,2.535,6.756,3.094,8.448,4.779,19.975,7.039,37.147,9.291,48.965,6.472,55.721,8.724a81.1,81.1,0,0,0,14.637,3.094s12.661,6.756,19.416,5.071,18.29-32.368,18.29-32.368-44.462-10.409-45.871-13.787-44.186-19.133-44.186-19.133l-25.329.6Z" transform="translate(-120.843 -207.805)" opacity="0.1"/>
    <path id="Trazado_34" data-name="Trazado 34" d="M399.06,711.089l2.252,8.448s5.071,3.937,6.2,5.905,7.6,2.535,7.6,2.535,6.755,3.094,8.44,4.787,19.983,7.031,37.147,9.283,48.973,6.472,55.729,8.724a81.347,81.347,0,0,0,14.629,3.086s12.669,6.748,19.424,5.063,18.29-32.368,18.29-32.368-44.47-10.409-45.871-13.787-64.169-28.982-64.169-28.982l-19.684-4.5Z" transform="translate(-120.385 -204.152)" fill="#65617d"/>
    <path id="Trazado_35" data-name="Trazado 35" d="M464.9,447.67l-4.921,2.819-9.448,64.728s-5.015,4.787-3.449,7.874-.307,8.44-.307,8.44-8.472,3.661-6.59,5.913,1.024,6.472-.268,9.283-3.409,7.874,0,8.724.583,11.81.583,11.81,11.881-1.354,11.023,5.622c-.354,2.819,13.432,11.81,13.432,11.81s-15.668-28.423,19.432-24.487l3.016-16.023s3.016-9.023,0-11.81.677-16.18.677-16.18l.661-58.115Z" transform="translate(-128.682 -154.901)" fill="#007dff"/>
    <path id="Trazado_36" data-name="Trazado 36" d="M462.44,553.84c.622,1.031,19.574,3.149,20.81,6.511S462.44,553.84,462.44,553.84Z" transform="translate(-133.863 -177.477)" opacity="0.1"/>
    <path id="Trazado_37" data-name="Trazado 37" d="M454.85,572.421s2.575-8.039,8.661-6.6S454.85,572.421,454.85,572.421Z" transform="translate(-132.249 -179.989)" opacity="0.1"/>
    <path id="Trazado_38" data-name="Trazado 38" d="M450.67,586.477s4.527-10.716,10.708-9.889S450.67,586.477,450.67,586.477Z" transform="translate(-131.36 -182.305)" opacity="0.1"/>
    <path id="Trazado_39" data-name="Trazado 39" d="M697.723,585.285l-1.976,11.81s-20.259,37.155-23.92,37.714-23.621-24.762-23.621-24.762l-5.346-24.77,21.046-3.992,9.346-9.236S696.872,574.31,697.723,585.285Z" transform="translate(-172.229 -181.35)" fill="#fbbebe"/>
    <path id="Trazado_40" data-name="Trazado 40" d="M692.328,458.5l7.6,5.346v28.424s5.913-.567,4.5,2.535-4.22,4.779-1.685,7.6,1.968,8.157-.283,8.724-6.189,2.811-2.535,4.22,5.913,3.937,5.913,5.63.283,4.22-1.126,6.189-2.811,6.472-1.126,8.165-1.409,10.409-1.409,10.409,5.354,13.794.283,17.731c0,0-2.252,7.874-2.535,8.44,0,0,3.551-27.392-31.856-15.81,0,0-.654-10.44-.9-14.306s3.055-5,1.236-7.307-6.37-7.606-4.22-9.007,1.409-3.937.559-5.913-3.819-1.968-1.126-4.362,4.291-4.638,2.709-5.763-4.331-4.8-2.142-6.48,2.252-26.172,2.252-26.172S675.448,440.773,692.328,458.5Z" transform="translate(-176.409 -156.161)" fill="#007dff"/>
    <path id="Trazado_41" data-name="Trazado 41" d="M695.84,520.978s10.818-2.937,11.173,0S695.84,520.978,695.84,520.978Z" transform="translate(-183.495 -170.212)" opacity="0.1"/>
    <path id="Trazado_42" data-name="Trazado 42" d="M680.4,531.081s14.834-3.708,16.684-.827S680.4,531.081,680.4,531.081Z" transform="translate(-180.211 -172.228)" opacity="0.1"/>
    <path id="Trazado_43" data-name="Trazado 43" d="M676.21,541.262s22.251-3.094,23.692,1.441S676.21,541.262,676.21,541.262Z" transform="translate(-179.32 -174.583)" opacity="0.1"/>
    <path id="Trazado_44" data-name="Trazado 44" d="M680.4,553.84c.827.2,21.424,1.646,21.833,5.559S680.4,553.84,680.4,553.84Z" transform="translate(-180.211 -177.477)" opacity="0.1"/>
    <rect id="Rectángulo_40" data-name="Rectángulo 40" width="176.43" height="100.206" rx="10.47" transform="translate(334.687 389.047)" fill="#3f3d56"/>
    <circle id="Elipse_14" data-name="Elipse 14" cx="6.504" cy="6.504" r="6.504" transform="translate(416.398 432.651)" fill="#e7effd"/>
    <path id="Trazado_45" data-name="Trazado 45" d="M507.72,491.94s16.912,12.928,29.99,3.079C537.71,495.019,515.6,497.026,507.72,491.94Z" transform="translate(-143.492 -164.314)" opacity="0.1"/>
    <path id="Trazado_46" data-name="Trazado 46" d="M616.48,496.36s16.9,12.92,29.982,3.071C646.462,499.431,624.361,501.446,616.48,496.36Z" transform="translate(-166.619 -165.254)" opacity="0.1"/>
    <path id="Trazado_47" data-name="Trazado 47" d="M597.752,325.727a40.25,40.25,0,0,1-6.141,21.44c-.339-11.283-2.992-22.573-9.133-32-5.622-8.661-22.715-23.77-34.463-19.558a8.322,8.322,0,0,0-5.133,5.512c-1.165,4.425,2.244,6.3,4.433,9.787a30.006,30.006,0,0,1,4.094,20.219,28.128,28.128,0,0,1-.591,2.8c-1.85,6.944-6.086,14.889-1.716,20.581,3.047,3.937,9.6,5.338,10.488,10.236a5.977,5.977,0,0,1,.079,1.4c-.2,3.315-3.031,6.236-4.268,9.488-1.449,3.834-.63,7.645.874,11.5,1.953,5.023,5.071,10.1,5.826,15.409s-.874,10.236-2.8,15.22c-1.819,4.724-3.937,9.409-4.645,14.33-1.362,9.354,2.071,20.172-3.819,27.557a4.125,4.125,0,0,1-2.575,1.74c-3.771.394-3.149-6.385-6.165-8.661.323,3.937.63,8.047-.787,11.732s-5.149,6.818-9.055,6.2l-1.346-8.842a25.533,25.533,0,0,1-9.37,5.866,68.3,68.3,0,0,1,9.779-26.455c-9.913,4.771-15.692,15.1-20.849,24.817-3.212,6.07-6.543,12.7-5.417,19.479.457,2.764,1.646,5.393,1.905,8.173s-.748,6.031-3.338,7.086c-2.26.921-4.9-.181-6.527-2.023l-.283-.339c-.158-.2-.307-.417-.449-.63a10.571,10.571,0,0,1-.748-1.338,25.893,25.893,0,0,1-1.575-5.173l-.173-.787c-2.622-11.5-4.984-23.369-3.063-35.006.709-4.283,2-8.535,1.842-12.881a23.621,23.621,0,0,0-1.48-7.165c-2.3-6.441-6.724-12.354-9.244-18.841a.562.562,0,0,1-.063-.142c-1.323-3.433-1.976-7.724.472-10.48,1.26-1.425,3.149-2.142,4.724-3.149,4.9-3.189,7.086-9.243,7.992-15.023a51.089,51.089,0,0,0,.614-7.874c6.637-2.362,15.5-5.763,16.471-5.228,1.378.74,15.188-.543,15.747-.6a20.688,20.688,0,0,0,9.669-11.212c.165-.465.307-.945.441-1.449a40.525,40.525,0,1,1,59.768-35.675Z" transform="translate(-137.742 -120.362)" opacity="0.1"/>
    <path id="Trazado_48" data-name="Trazado 48" d="M550.817,320.024c-1.858,6.944-6.086,14.889-1.708,20.589,3.047,3.937,9.6,5.33,10.472,10.236.7,3.937-2.771,7.181-4.173,10.881-3.338,8.842,5.37,17.534,6.692,26.9,1.441,10.157-5.96,19.408-7.432,29.557-1.362,9.354,2.071,20.164-3.819,27.557a4.078,4.078,0,0,1-2.575,1.74c-3.771.4-3.149-6.378-6.165-8.661.323,3.937.63,8.047-.787,11.732s-5.149,6.811-9.055,6.2l-1.346-8.85a25.5,25.5,0,0,1-9.37,5.866,68.343,68.343,0,0,1,9.771-26.447c-9.913,4.771-15.684,15.1-20.841,24.809-3.22,6.07-6.543,12.708-5.425,19.487.457,2.764,1.646,5.386,1.905,8.173s-.748,6.023-3.338,7.086c-2.362.984-5.22-.323-6.811-2.362s-2.2-4.638-2.779-7.149c-2.693-11.747-5.2-23.873-3.244-35.762.709-4.291,2-8.543,1.842-12.881-.339-9.5-7.354-17.322-10.771-26.164-1.331-3.441-1.976-7.724.472-10.48,1.26-1.425,3.149-2.142,4.724-3.149,4.889-3.2,7.086-9.244,7.984-15.023a52.058,52.058,0,0,0-.528-18.8c-1.976-9.251-6.511-18.29-5.385-27.683,1.1-9.244,7.433-16.865,11.692-25.14a59.477,59.477,0,0,0,6.031-34.762c-.732-5.551-2.016-11.976,1.748-16.125,4.519-4.976,13.267-3.1,18.424-7.417,2.52-2.1,3.74-5.338,5.606-8.031a19.684,19.684,0,0,1,21.03-7.511c3.543,1.016,6.724,3.031,10.236,4.173,4.945,1.575,10.236,1.4,15.432,2.024s10.637,2.362,13.613,6.622c1.575,2.268,2.291,5.031,3.74,7.377,3.11,5.039,9.039,7.464,13.527,11.33a26.25,26.25,0,0,1,7.385,28.038c-2.677,7.456-8.873,14.054-8.346,21.959.213,3.252,1.575,6.441,1.15,9.661-1.244,8.968-14.259,10.755-18.755,18.613.362-12.881-2.11-26.148-9.141-36.943-5.622-8.661-22.715-23.778-34.462-19.566a8.354,8.354,0,0,0-5.134,5.511c-1.165,4.417,2.244,6.3,4.433,9.787A29.762,29.762,0,0,1,550.817,320.024Z" transform="translate(-137.741 -108.139)" fill="#3f3d56"/>
    <g id="Grupo_1" data-name="Grupo 1" transform="translate(342.962 150.077)" opacity="0.2">
      <path id="Trazado_49" data-name="Trazado 49" d="M497.848,392.023a51.61,51.61,0,0,0-1.126-12.047c-1.677-7.874-5.189-15.582-5.511-23.487-.457,8.8,3.661,17.322,5.511,25.983A51.691,51.691,0,0,1,497.848,392.023Z" transform="translate(-482.935 -285.589)"/>
      <path id="Trazado_50" data-name="Trazado 50" d="M535.682,481.768c.685-1.252,1.394-2.5,2.157-3.708-9.9,4.771-15.684,15.1-20.841,24.817-2.984,5.614-6.047,11.724-5.59,17.975.378-5.362,3.016-10.59,5.59-15.448C521.769,496.421,527.076,486.926,535.682,481.768Z" transform="translate(-487.228 -311.44)"/>
      <path id="Trazado_51" data-name="Trazado 51" d="M509.454,539.3a5.976,5.976,0,0,1-3.291,4.937c-2.362.976-5.22-.323-6.8-2.362s-2.212-4.63-2.787-7.149c-1.921-8.393-3.748-16.991-3.937-25.55-.189,9.393,1.811,18.857,3.937,28.085.575,2.512,1.2,5.118,2.787,7.149s4.417,3.338,6.8,2.362c2.59-1.063,3.606-4.3,3.346-7.086A.956.956,0,0,1,509.454,539.3Z" transform="translate(-483.243 -318.058)"/>
      <path id="Trazado_52" data-name="Trazado 52" d="M569.695,334.2a28.568,28.568,0,0,1-.913,5.984c-1.37,5.141-4.047,10.842-3.567,15.747.378-4.283,2.425-8.944,3.567-13.235A28.456,28.456,0,0,0,569.695,334.2Z" transform="translate(-498.667 -280.849)"/>
      <path id="Trazado_53" data-name="Trazado 53" d="M514.156,282.219a59.075,59.075,0,0,0-.488-8.984c-.291-2.189-.661-4.519-.787-6.795a49.117,49.117,0,0,0,.787,9.33A58.953,58.953,0,0,1,514.156,282.219Z" transform="translate(-487.543 -266.44)"/>
      <path id="Trazado_54" data-name="Trazado 54" d="M579.567,384.137a.272.272,0,0,0-.055-.2c-.6,2.929-3.008,5.606-4.118,8.551A11.99,11.99,0,0,0,574.7,398a11.318,11.318,0,0,1,.693-2.976C576.787,391.318,580.26,388.042,579.567,384.137Z" transform="translate(-500.681 -291.426)"/>
      <path id="Trazado_55" data-name="Trazado 55" d="M492.638,471.614c-.346-9.5-7.354-17.322-10.779-26.164a17.935,17.935,0,0,1-1.1-4.33,14.628,14.628,0,0,0,1.1,6.866c3.37,8.724,10.188,16.4,10.74,25.691C492.638,472.992,492.662,472.3,492.638,471.614Z" transform="translate(-480.709 -303.585)"/>
      <path id="Trazado_56" data-name="Trazado 56" d="M599.241,312.52c-5.63-8.661-22.715-23.778-34.463-19.566a8.361,8.361,0,0,0-5.141,5.511,5.961,5.961,0,0,0-.087,2.961,1.637,1.637,0,0,1,.087-.425,8.346,8.346,0,0,1,5.141-5.511c11.747-4.212,28.833,10.928,34.463,19.566,6.362,9.779,8.984,21.581,9.157,33.289C608.563,335.786,606.052,322.976,599.241,312.52Z" transform="translate(-497.444 -271.924)"/>
      <path id="Trazado_57" data-name="Trazado 57" d="M640.345,341.216c-1.236,8.944-14.172,10.747-18.715,18.558v2.583c4.488-7.874,17.511-9.645,18.747-18.613a10.684,10.684,0,0,0,0-2.653A.682.682,0,0,1,640.345,341.216Z" transform="translate(-510.676 -282.314)"/>
      <path id="Trazado_58" data-name="Trazado 58" d="M652.277,299.162c-2.677,7.464-8.874,14.054-8.346,21.967v.346c.583-6.968,5.882-13.015,8.307-19.778a24.783,24.783,0,0,0,1.378-9.637A24.07,24.07,0,0,1,652.277,299.162Z" transform="translate(-515.411 -271.888)"/>
      <path id="Trazado_59" data-name="Trazado 59" d="M567.44,498.1a4.094,4.094,0,0,1-2.575,1.748c-3.771.4-3.149-6.378-6.165-8.661.079.9.15,1.8.2,2.709,2.8,2.425,2.283,8.873,5.968,8.48a4.055,4.055,0,0,0,2.575-1.74c3.362-4.22,3.685-9.551,3.6-15.086C570.951,490.164,570.282,494.565,567.44,498.1Z" transform="translate(-497.294 -313.033)"/>
      <path id="Trazado_60" data-name="Trazado 60" d="M552.348,506.132c-1.433,3.693-5.149,6.818-9.062,6.2q-.669-4.417-1.339-8.85a25.683,25.683,0,0,1-8.9,5.693c-.173.9-.339,1.8-.472,2.708a25.524,25.524,0,0,0,9.377-5.866q.669,4.433,1.339,8.85c3.937.614,7.629-2.5,9.062-6.2a20.172,20.172,0,0,0,1.031-8.007A17.031,17.031,0,0,1,552.348,506.132Z" transform="translate(-491.737 -316.246)"/>
      <path id="Trazado_61" data-name="Trazado 61" d="M574.552,459.577a44.977,44.977,0,0,0-.339,7.173,35.887,35.887,0,0,1,.339-4.638c1.409-9.677,8.189-18.534,7.574-28.132C581.583,442.657,575.836,450.758,574.552,459.577Z" transform="translate(-500.588 -302.067)"/>
    </g>
    <path id="Trazado_62" data-name="Trazado 62" d="M871.861,637s-5.346,24.9,18.448,27.857l1.472-2.764S873.357,644.771,871.861,637Z" transform="translate(-220.816 -195.161)" fill="#007dff"/>
    <path id="Trazado_63" data-name="Trazado 63" d="M901.366,658.546l-5.511,1.173-.551.118s-14.763-11.984-14.574-38.738a66.916,66.916,0,0,0,7.047,11.157C893.611,640,900.264,650.334,901.366,658.546Z" transform="translate(-222.81 -191.78)" fill="#007dff"/>
    <path id="Trazado_64" data-name="Trazado 64" d="M905.767,658.628a3.488,3.488,0,0,1-2.976.386c-14.172-3.323-9.409-49.6-9.409-49.6.787.37,1.646,6.3,4.913,13.857C904.027,636.645,910.326,655.273,905.767,658.628Z" transform="translate(-225.338 -189.294)" fill="#007dff"/>
    <path id="Trazado_65" data-name="Trazado 65" d="M942.765,637s.921,24.9-22.873,27.857l-1.472-2.764S941.292,644.771,942.765,637Z" transform="translate(-230.826 -195.161)" fill="#007dff"/>
    <path id="Trazado_66" data-name="Trazado 66" d="M933.909,621.1c.173,26.77-19.007,38.738-19.007,38.738l-.551-.118-5.512-1.173c1.094-8.212,7.763-18.55,13.606-26.29A59.835,59.835,0,0,1,933.909,621.1Z" transform="translate(-228.788 -191.78)" fill="#007dff"/>
    <path id="Trazado_67" data-name="Trazado 67" d="M913.34,656.209a8.8,8.8,0,0,1-3.149,2.425h0a6.055,6.055,0,0,1-1.157.386c-3.5.787-4.724-1.7-4.519-5.984.331-7.629,5.126-20.857,9.448-30.707,3.1-7.133,8.165-12.535,8.921-12.889C922.836,609.4,922.623,645.454,913.34,656.209Z" transform="translate(-227.864 -189.3)" fill="#007dff"/>
    <path id="Trazado_68" data-name="Trazado 68" d="M908.6,588.77s-15.865,56.264-2.212,64.752S912.1,593.754,908.6,588.77Z" transform="translate(-227.087 -184.905)" fill="#007dff"/>
    <path id="Trazado_69" data-name="Trazado 69" d="M871.861,637s-5.346,24.9,18.448,27.857l1.472-2.764S873.357,644.771,871.861,637Z" transform="translate(-220.816 -195.161)" opacity="0.1"/>
    <path id="Trazado_70" data-name="Trazado 70" d="M901.366,658.546l-5.511,1.173-.551.118s-14.763-11.984-14.574-38.738a66.916,66.916,0,0,0,7.047,11.157C893.611,640,900.264,650.334,901.366,658.546Z" transform="translate(-222.81 -191.78)" opacity="0.1"/>
    <path id="Trazado_71" data-name="Trazado 71" d="M905.767,658.628a3.488,3.488,0,0,1-2.976.386c-14.172-3.323-9.409-49.6-9.409-49.6.787.37,1.646,6.3,4.913,13.857C904.027,636.645,910.326,655.273,905.767,658.628Z" transform="translate(-225.338 -189.294)" opacity="0.1"/>
    <path id="Trazado_72" data-name="Trazado 72" d="M942.765,637s.921,24.9-22.873,27.857l-1.472-2.764S941.292,644.771,942.765,637Z" transform="translate(-230.826 -195.161)" opacity="0.1"/>
    <path id="Trazado_73" data-name="Trazado 73" d="M933.909,621.1c.173,26.77-19.007,38.738-19.007,38.738l-.551-.118-5.512-1.173c1.094-8.212,7.763-18.55,13.606-26.29A59.835,59.835,0,0,1,933.909,621.1Z" transform="translate(-228.788 -191.78)" opacity="0.1"/>
    <path id="Trazado_74" data-name="Trazado 74" d="M913.34,656.209a8.8,8.8,0,0,1-3.149,2.425h0a6.055,6.055,0,0,1-1.157.386c-3.5.787-4.724-1.7-4.519-5.984.331-7.629,5.126-20.857,9.448-30.707,3.1-7.133,8.165-12.535,8.921-12.889C922.836,609.4,922.623,645.454,913.34,656.209Z" transform="translate(-227.864 -189.3)" opacity="0.1"/>
    <path id="Trazado_75" data-name="Trazado 75" d="M908.6,588.77s-15.865,56.264-2.212,64.752S912.1,593.754,908.6,588.77Z" transform="translate(-227.087 -184.905)" opacity="0.1"/>
    <path id="Trazado_76" data-name="Trazado 76" d="M871.963,637s-3.149,24.9,20.66,27.857l1.472-2.764S873.459,644.771,871.963,637Z" transform="translate(-220.917 -195.161)" fill="#007dff"/>
    <path id="Trazado_77" data-name="Trazado 77" d="M903.576,658.546l-5.511,1.173-.559.118S880.531,647.854,880.72,621.1c0,0,4.346,4.661,9.259,11.157C895.821,640,902.474,650.334,903.576,658.546Z" transform="translate(-222.808 -191.78)" fill="#007dff"/>
    <path id="Trazado_78" data-name="Trazado 78" d="M906.078,661.56l-5.511,1.173c-5.252-4.606-7.33-16.629-8.086-27.463C898.322,643.01,904.975,653.348,906.078,661.56Z" transform="translate(-225.309 -194.793)" opacity="0.1"/>
    <path id="Trazado_79" data-name="Trazado 79" d="M908.138,658.628a3.488,3.488,0,0,1-2.976.386c-14.212-3.323-11.621-49.6-11.621-49.6.787.37,3.858,6.3,7.086,13.857C906.4,636.645,912.7,655.273,908.138,658.628Z" transform="translate(-225.496 -189.294)" fill="#007dff"/>
    <path id="Trazado_80" data-name="Trazado 80" d="M943.363,637s3.149,24.9-20.66,27.857l-1.472-2.764S941.89,644.771,943.363,637Z" transform="translate(-231.423 -195.161)" fill="#007dff"/>
    <path id="Trazado_81" data-name="Trazado 81" d="M934.507,621.1c.173,26.77-16.794,38.738-16.794,38.738l-.551-.118-5.512-1.173c1.1-8.212,7.763-18.55,13.606-26.29C930.153,625.745,934.507,621.1,934.507,621.1Z" transform="translate(-229.386 -191.78)" fill="#007dff"/>
    <path id="Trazado_82" data-name="Trazado 82" d="M925.232,635.27c-.709,10.11-2.559,21.259-7.047,26.431a9.056,9.056,0,0,1-1.024,1.031l-5.511-1.173C912.713,653.348,919.39,643.01,925.232,635.27Z" transform="translate(-229.386 -194.793)" opacity="0.1"/>
    <path id="Trazado_83" data-name="Trazado 83" d="M916.148,656.209a8.8,8.8,0,0,1-3.15,2.425h0a6.133,6.133,0,0,1-1.165.386c-3.5.787-4.724-1.7-4.519-5.984.339-7.629,5.126-20.857,9.448-30.707,3.1-7.133,5.953-12.535,6.708-12.889C923.431,609.4,925.431,645.454,916.148,656.209Z" transform="translate(-228.459 -189.3)" fill="#007dff"/>
    <path id="Trazado_84" data-name="Trazado 84" d="M909.885,662.37a3.937,3.937,0,0,1-2.244-.716c-6.685-4.165-6.818-19.794-5.228-34.644C908.145,640.387,914.444,659.016,909.885,662.37Z" transform="translate(-227.243 -193.037)" opacity="0.1"/>
    <path id="Trazado_85" data-name="Trazado 85" d="M916.154,659.69c-.787,1.661-1.8,2.543-3.149,2.425h0a4.517,4.517,0,0,1-1.905-.716,10.142,10.142,0,0,1-3.779-4.882c.339-7.629,5.126-20.857,9.448-30.707C918.264,639.5,918.776,654.06,916.154,659.69Z" transform="translate(-228.465 -192.781)" opacity="0.1"/>
    <path id="Trazado_86" data-name="Trazado 86" d="M909.051,588.77s-13.653,56.264,0,64.752S912.555,593.754,909.051,588.77Z" transform="translate(-227.543 -184.905)" fill="#007dff"/>
    <path id="Trazado_87" data-name="Trazado 87" d="M883.505,591.66H826.69v9.409h8.669l.213,1.11,3.472,18.259h33.029l3.472-18.259.213-1.11h7.748Z" transform="translate(-175.802 -125.815)" fill="#d4dfec"/>
    <path id="Trazado_88" data-name="Trazado 88" d="M883.475,591.66H826.66v9.409h8.669l.213,1.11,3.472,18.259h33.029l3.472-18.259.213-1.11h7.748Z" transform="translate(-175.796 -125.815)" opacity="0.1"/>
    <path id="Trazado_89" data-name="Trazado 89" d="M881.449,598.69l-.953,4.984-3.472,18.259h-33.03l-3.472-18.259-.953-4.984Z" transform="translate(-178.541 -127.309)" fill="#d4dfec"/>
    <path id="Trazado_90" data-name="Trazado 90" d="M881.449,598.69l-.953,4.984H840.523l-.953-4.984Z" transform="translate(-178.541 -127.309)" opacity="0.1"/>
    <rect id="Rectángulo_41" data-name="Rectángulo 41" width="56.815" height="9.409" transform="translate(653.101 465.845)" fill="#d4dfec"/>
    <path id="Trazado_91" data-name="Trazado 91" d="M316.5,589.3a14.53,14.53,0,0,0-1.921,3.622c-.118.315-.236.677-.354,1.024a2.8,2.8,0,0,0-.669-.228,9.3,9.3,0,0,0-3.008-.26c0-.394.039-.787.055-1.236.126-4.456-.4-10.653-4.645-8.031-4.071,2.535-1.165,6.74,1.464,9.448.228.236.449.449.669.661-2.362,1.724-2.85,5.685-3.252,9.834s-3.937,8.661-6.252,11.259c-.228.26-.449.5-.661.716a8.488,8.488,0,0,0-6.787-1.748l-.315-1.15c-1.89-6.826-5.819-18.652-10.826-21.259l.661-.835c2.126-2.787,4.519-6.921.984-7.976s-3.858,3.582-3.661,7.086a11.875,11.875,0,0,0,.1,1.236,5.22,5.22,0,0,0-3.708,1.8c-.165-.2-.346-.417-.543-.646-2.866-3.393-8.133-8.755-9.724-4.724-1.48,3.779,3.149,8.661,6.409,11.543l.2.173c-2.189,8.881,7.354,16.109,12.5,19.274.228.15.449.283.661.409-7.086,8.354-11.472,24.022-11.472,24.022l19.889,3.614s13.172-11.362,11.487-22.046h.134c13.157-2.638,16.149-16.668,14.1-25l.228-.094a14.96,14.96,0,0,0,6.094-4.606C328.007,590.083,320.283,584.3,316.5,589.3Z" transform="translate(-91.629 -183.675)" fill="#007dff"/>
    <path id="Trazado_92" data-name="Trazado 92" d="M316.5,589.3a14.53,14.53,0,0,0-1.921,3.622c-.118.315-.236.677-.354,1.024a2.8,2.8,0,0,0-.669-.228,9.3,9.3,0,0,0-3.008-.26c0-.394.039-.787.055-1.236.126-4.456-.4-10.653-4.645-8.031-4.071,2.535-1.165,6.74,1.464,9.448.228.236.449.449.669.661-2.362,1.724-2.85,5.685-3.252,9.834s-3.937,8.661-6.252,11.259c-.228.26-.449.5-.661.716a8.488,8.488,0,0,0-6.787-1.748l-.315-1.15c-1.89-6.826-5.819-18.652-10.826-21.259l.661-.835c2.126-2.787,4.519-6.921.984-7.976s-3.858,3.582-3.661,7.086a11.875,11.875,0,0,0,.1,1.236,5.22,5.22,0,0,0-3.708,1.8c-.165-.2-.346-.417-.543-.646-2.866-3.393-8.133-8.755-9.724-4.724-1.48,3.779,3.149,8.661,6.409,11.543l.2.173c-2.189,8.881,7.354,16.109,12.5,19.274.228.15.449.283.661.409-7.086,8.354-11.472,24.022-11.472,24.022l19.889,3.614s13.172-11.362,11.487-22.046h.134c13.157-2.638,16.149-16.668,14.1-25l.228-.094a14.96,14.96,0,0,0,6.094-4.606C328.007,590.083,320.283,584.3,316.5,589.3Z" transform="translate(-91.629 -183.675)" opacity="0.1"/>
    <path id="Trazado_93" data-name="Trazado 93" d="M277.307,595.988l-2.323,6.8a37.523,37.523,0,0,1-2.921-2.362c-3.26-2.85-7.874-7.763-6.409-11.542,1.575-4.063,6.858,1.3,9.732,4.724C276.536,594.965,277.307,595.988,277.307,595.988Z" transform="translate(-91.958 -184.62)" fill="#007dff"/>
    <path id="Trazado_94" data-name="Trazado 94" d="M286.016,591.181a33.626,33.626,0,0,1-2.26,2.661,34.853,34.853,0,0,1-.417-3.575c-.189-3.48.173-8.1,3.661-7.086S288.142,588.394,286.016,591.181Z" transform="translate(-95.769 -183.686)" fill="#007dff"/>
    <path id="Trazado_95" data-name="Trazado 95" d="M322.991,592.4c-.079,2.236-.291,4.023-.291,4.023a29.569,29.569,0,0,1-2.9-2.59c-2.63-2.724-5.511-6.929-1.457-9.448C322.589,581.752,323.109,587.948,322.991,592.4Z" transform="translate(-102.793 -183.839)" fill="#007dff"/>
    <path id="Trazado_96" data-name="Trazado 96" d="M339.273,596.358a14.96,14.96,0,0,1-6.094,4.606,16.47,16.47,0,0,1-2.047.74l-2.732-3.842a27.566,27.566,0,0,1,1.134-3.732,14.275,14.275,0,0,1,1.921-3.622C335.234,585.485,342.95,591.272,339.273,596.358Z" transform="translate(-105.36 -184.864)" fill="#007dff"/>
    <path id="Trazado_97" data-name="Trazado 97" d="M277.193,595.26c1.15,1.354,1.921,2.362,1.921,2.362l-2.323,6.8a37.512,37.512,0,0,1-2.921-2.362,13.323,13.323,0,0,1,2.614-5.976Q276.838,595.662,277.193,595.26Z" transform="translate(-93.764 -186.285)" opacity="0.1"/>
    <path id="Trazado_98" data-name="Trazado 98" d="M286.027,593.133a33.611,33.611,0,0,1-2.26,2.661,34.855,34.855,0,0,1-.417-3.575A4.614,4.614,0,0,1,286.027,593.133Z" transform="translate(-95.78 -185.639)" opacity="0.1"/>
    <path id="Trazado_99" data-name="Trazado 99" d="M295.4,620.438l-5.771,2.543a34.553,34.553,0,0,1-3.079-1.74c-6.07-3.732-18.274-13.125-10.094-24.2s15.007,8.787,17.692,18.5C294.962,618.446,295.4,620.438,295.4,620.438Z" transform="translate(-93.732 -185.969)" fill="#007dff"/>
    <path id="Trazado_100" data-name="Trazado 100" d="M320.74,596.173a4.724,4.724,0,0,1,3.189-1.433c-.079,2.236-.291,4.023-.291,4.023A29.534,29.534,0,0,1,320.74,596.173Z" transform="translate(-103.731 -186.174)" opacity="0.1"/>
    <path id="Trazado_101" data-name="Trazado 101" d="M333.179,602.464a16.471,16.471,0,0,1-2.047.74l-2.732-3.842a27.566,27.566,0,0,1,1.134-3.732C331.3,596.661,332.6,599.228,333.179,602.464Z" transform="translate(-105.36 -186.364)" opacity="0.1"/>
    <path id="Trazado_102" data-name="Trazado 102" d="M313.124,627.689c-.315.063-.646.126-.968.173-19.361,2.945-6.385-7.5-6.385-7.5s.874-.787,2.055-2.11c2.362-2.583,5.85-7.086,6.252-11.259.606-6.3,1.307-12.165,8.716-10.432C330.06,598.258,331.446,624.02,313.124,627.689Z" transform="translate(-99.643 -186.495)" fill="#007dff"/>
    <rect id="Rectángulo_42" data-name="Rectángulo 42" width="36.99" height="9.724" transform="translate(176.138 489.395)" fill="#d4dfec"/>
    <rect id="Rectángulo_43" data-name="Rectángulo 43" width="48.328" height="33.943" transform="translate(170.256 457.783)" fill="#d4dfec"/>
    <rect id="Rectángulo_44" data-name="Rectángulo 44" width="36.99" height="9.724" transform="translate(176.138 489.395)" opacity="0.1"/>
    <rect id="Rectángulo_45" data-name="Rectángulo 45" width="48.328" height="33.943" transform="translate(170.256 457.783)" opacity="0.1"/>
    <rect id="Rectángulo_46" data-name="Rectángulo 46" width="36.99" height="9.724" transform="translate(178.563 489.395)" fill="#d4dfec"/>
    <path id="Trazado_103" data-name="Trazado 103" d="M297.608,621.42c.787,2.905,1.252,4.9,1.252,4.9l-5.771,2.543a34.564,34.564,0,0,1-3.079-1.74C292.27,624.239,294.821,622.089,297.608,621.42Z" transform="translate(-97.196 -191.848)" opacity="0.1"/>
    <path id="Trazado_104" data-name="Trazado 104" d="M313.124,633.63c-.315.063-.646.126-.968.173-19.361,2.945-6.385-7.5-6.385-7.5s.874-.787,2.055-2.11C311.439,627.08,312.92,630.339,313.124,633.63Z" transform="translate(-99.643 -192.437)" opacity="0.1"/>
    <path id="Trazado_105" data-name="Trazado 105" d="M276.29,651.821s10.842-38.8,26.038-26.849-6.181,30.4-6.181,30.4Z" transform="translate(-94.279 -192.117)" fill="#007dff"/>
    <circle id="Elipse_15" data-name="Elipse 15" cx="1.213" cy="1.213" r="1.213" transform="translate(186.271 415.943)" opacity="0.1"/>
    <circle id="Elipse_16" data-name="Elipse 16" cx="1.213" cy="1.213" r="1.213" transform="translate(186.169 421.612)" opacity="0.1"/>
    <circle id="Elipse_17" data-name="Elipse 17" cx="1.213" cy="1.213" r="1.213" transform="translate(221.426 417.053)" opacity="0.1"/>
    <circle id="Elipse_18" data-name="Elipse 18" cx="1.213" cy="1.213" r="1.213" transform="translate(193.058 446.13)" opacity="0.1"/>
    <circle id="Elipse_19" data-name="Elipse 19" cx="1.213" cy="1.213" r="1.213" transform="translate(218.899 426.478)" opacity="0.1"/>
    <circle id="Elipse_20" data-name="Elipse 20" cx="1.213" cy="1.213" r="1.213" transform="translate(206.333 439.044)" opacity="0.1"/>
    <circle id="Elipse_21" data-name="Elipse 21" cx="1.213" cy="1.213" r="1.213" transform="translate(190.428 418.368)" opacity="0.1"/>
    <circle id="Elipse_22" data-name="Elipse 22" cx="1.213" cy="1.213" r="1.213" transform="translate(218.088 420.699)" opacity="0.1"/>
    <circle id="Elipse_23" data-name="Elipse 23" cx="1.213" cy="1.213" r="1.213" transform="translate(213.931 430.123)" opacity="0.1"/>
    <circle id="Elipse_24" data-name="Elipse 24" cx="1.213" cy="1.213" r="1.213" transform="translate(201.168 445.225)" opacity="0.1"/>
    <circle id="Elipse_25" data-name="Elipse 25" cx="1.213" cy="1.213" r="1.213" transform="translate(198.53 439.241)" opacity="0.1"/>
    <circle id="Elipse_26" data-name="Elipse 26" cx="1.213" cy="1.213" r="1.213" transform="translate(192.247 425.769)" opacity="0.1"/>
    <rect id="Rectángulo_47" data-name="Rectángulo 47" width="36.99" height="3.551" transform="translate(178.563 489.395)" opacity="0.1"/>
    <rect id="Rectángulo_48" data-name="Rectángulo 48" width="48.328" height="33.943" transform="translate(172.689 457.783)" fill="#d4dfec"/>
    <circle id="Elipse_27" data-name="Elipse 27" cx="1.213" cy="1.213" r="1.213" transform="translate(202.79 450.697)" opacity="0.1"/>
    <circle id="Elipse_28" data-name="Elipse 28" cx="1.213" cy="1.213" r="1.213" transform="translate(195.491 452.216)" opacity="0.1"/>
  </g>
</svg>
