<svg xmlns="http://www.w3.org/2000/svg" width="657.973" height="569.235" viewBox="0 0 657.973 569.235">
  <g id="undraw_personal_finance_tqcd" transform="translate(0)">
    <path id="Trazado_972" data-name="Trazado 972" d="M831.328,604.414s81.4,3.893,62.44,27.6-68.779-13.9-68.779-13.9Z" transform="translate(-307.276 -199.98)" fill="#ffb8b8"/>
    <path id="Trazado_973" data-name="Trazado 973" d="M648.676,313.448l16.569,3.832s9.665,26.821,16.568,51.088,20.711,97.068,20.711,97.068L809.566,534.83,796.8,561.249,654.2,509.261,622.443,393.912Z" transform="translate(-274.631 -134.787)" fill="#575a89"/>
    <path id="Trazado_974" data-name="Trazado 974" d="M458.536,291.607,452.361,411.23,465.247,446.8,427.5,421.189Z" transform="translate(-68.902 -65.337)" opacity="0.2"/>
    <path id="Trazado_975" data-name="Trazado 975" d="M662.135,643.617s17.949,44.7,20.711,75.355,5.523,54.92,5.523,54.92H604.146L587.577,750.9v22.989H489.546s-27.614-83.018-16.568-93.236,115.98-53.643,115.98-53.643Z" transform="translate(-250.12 -205.044)" fill="#2f2e41"/>
    <rect id="Rectángulo_248" data-name="Rectángulo 248" width="487.357" height="1.552" transform="translate(85.141 567.684)" fill="#3f3d56"/>
    <ellipse id="Elipse_215" data-name="Elipse 215" cx="52.467" cy="48.534" rx="52.467" ry="48.534" transform="translate(253.923 33.06)" fill="#ffb8b8"/>
    <path id="Trazado_976" data-name="Trazado 976" d="M524.532,214.688l-4.142,56.2,52.467,65.137,26.234-61.306s-23.472-14.049-9.665-43.425Z" transform="translate(-258.183 -112.659)" fill="#ffb8b8"/>
    <path id="Trazado_977" data-name="Trazado 977" d="M661.87,571.746c0,11.5-34.518,29.377-34.518,29.377v6.386l-13.807,6.386L583.172,557.7,574.893,619s-60.756,8.947-80.083,0-29-5.106-56.612-14.044,11.047-129,11.047-129L421.631,290.762l60.328-27.9,3.179-1.474,8.3-1.412,12.717-2.173,42.5,26.576,3.422,16.605,2.105,10.219,11.039-11.5,8.338-25.366,59.322,30.479L616.314,427.421S661.87,560.254,661.87,571.746Z" transform="translate(-242.265 -122.318)" fill="#575a89"/>
    <path id="Trazado_978" data-name="Trazado 978" d="M463.419,713.428s63.513,47.257,33.137,56.2-46.944-48.534-46.944-48.534Z" transform="translate(-246.775 -224.406)" fill="#ffb8b8"/>
    <path id="Trazado_979" data-name="Trazado 979" d="M427.478,302.834l-13.807-2.554S392.96,310.5,391.58,330.933s-19.33,163.482-19.33,163.482l57.99,144.324,46.944-16.6L431.62,486.752l34.518-117.5Z" transform="translate(-234.306 -131.836)" fill="#575a89"/>
    <ellipse id="Elipse_216" data-name="Elipse 216" cx="5.033" cy="4.656" rx="5.033" ry="4.656" transform="translate(307.43 200.664)" fill="#2f2e41"/>
    <ellipse id="Elipse_217" data-name="Elipse 217" cx="5.033" cy="4.656" rx="5.033" ry="4.656" transform="translate(307.43 230.925)" fill="#2f2e41"/>
    <ellipse id="Elipse_218" data-name="Elipse 218" cx="5.033" cy="4.656" rx="5.033" ry="4.656" transform="translate(335.95 430.342)" fill="#2f2e41"/>
    <path id="Trazado_980" data-name="Trazado 980" d="M517.615,115.07l-9.7-3.592S528.2,90.826,556.41,92.622l-7.935-8.081s19.4-7.183,37.032,11.673c9.27,9.912,20,21.564,26.682,34.69h10.387l-4.335,8.83,15.173,8.83-15.573-1.586a45.69,45.69,0,0,1,.423,14.646,18.649,18.649,0,0,1-7.5,12.4h0s-12.028-23.031-12.028-26.623v8.979s-9.7-8.081-9.7-13.469l-5.29,6.286H548.475l5.29-8.081L533.486,143.8l7.935-9.877-31.4,40.787S492.046,128.539,517.615,115.07Z" transform="translate(-255.522 -83.197)" fill="#2f2e41"/>
    <ellipse id="Elipse_219" data-name="Elipse 219" cx="83.882" cy="77.594" rx="83.882" ry="77.594" transform="translate(490.208 220.014)" fill="#3f3d56"/>
    <ellipse id="Elipse_220" data-name="Elipse 220" cx="72.139" cy="66.731" rx="72.139" ry="66.731" transform="translate(501.951 230.877)" opacity="0.1"/>
    <path id="Trazado_981" data-name="Trazado 981" d="M885.388,494.692V484.98c-5.308-.1-10.8-1.827-14-4.231l2.2-6.443a23.588,23.588,0,0,0,13.177,4.135c6.5,0,10.89-3.943,10.89-9.424,0-5.289-3.569-8.558-10.341-11.444-9.334-3.846-15.1-8.27-15.1-16.636,0-7.982,5.4-14.04,13.818-15.482v-9.713H891.7v9.328a23.566,23.566,0,0,1,11.9,3.365l-2.288,6.347a21.394,21.394,0,0,0-11.53-3.27c-7.046,0-9.7,4.423-9.7,8.27,0,5,3.386,7.5,11.347,10.963,9.425,4.039,14.184,9.039,14.184,17.6,0,7.6-5.033,14.713-14.459,16.347v10Z" transform="translate(-314.755 -157.707)" fill="#fff"/>
    <path id="Trazado_982" data-name="Trazado 982" d="M250,503.735l33.549,96.941L256.711,499.8Z" transform="translate(-40.294 -111.986)" opacity="0.2"/>
    <path id="Trazado_983" data-name="Trazado 983" d="M249.13,333.953H227.835a3.381,3.381,0,0,1-3.5-3.238V302.4a3.381,3.381,0,0,1,3.5-3.238H249.13a3.381,3.381,0,0,1,3.5,3.238v28.317A3.381,3.381,0,0,1,249.13,333.953Zm-21.3-33.241a1.761,1.761,0,0,0-1.823,1.686v28.317a1.761,1.761,0,0,0,1.824,1.686H249.13a1.761,1.761,0,0,0,1.823-1.686V302.4a1.761,1.761,0,0,0-1.823-1.686Z" transform="translate(-210.466 -131.585)" fill="#3f3d56"/>
    <path id="Trazado_984" data-name="Trazado 984" d="M295.7,325.065H276.467a4.378,4.378,0,0,1-4.533-4.193V263.686a4.378,4.378,0,0,1,4.533-4.193H295.7a4.378,4.378,0,0,1,4.533,4.193v57.186A4.378,4.378,0,0,1,295.7,325.065Zm-19.231-64.02a2.758,2.758,0,0,0-2.855,2.641v57.186a2.757,2.757,0,0,0,2.855,2.641H295.7a2.758,2.758,0,0,0,2.855-2.641V263.686a2.758,2.758,0,0,0-2.855-2.641Z" transform="translate(-218.138 -122.698)" fill="#3f3d56"/>
    <path id="Trazado_985" data-name="Trazado 985" d="M342.556,316.889H324.81a5.1,5.1,0,0,1-5.275-4.88V227.88A5.1,5.1,0,0,1,324.81,223h17.746a5.1,5.1,0,0,1,5.275,4.88v84.129a5.1,5.1,0,0,1-5.276,4.88ZM324.81,224.552a3.475,3.475,0,0,0-3.6,3.328v84.129a3.475,3.475,0,0,0,3.6,3.328h17.746a3.475,3.475,0,0,0,3.6-3.328V227.88a3.475,3.475,0,0,0-3.6-3.328Z" transform="translate(-225.81 -114.521)" fill="#3f3d56"/>
    <rect id="Rectángulo_249" data-name="Rectángulo 249" width="15.971" height="24.008" transform="translate(20.031 172.967)" fill="#fff"/>
    <rect id="Rectángulo_250" data-name="Rectángulo 250" width="15.971" height="54.479" transform="translate(59.959 142.496)" fill="#fff"/>
    <rect id="Rectángulo_251" data-name="Rectángulo 251" width="15.971" height="82.795" transform="translate(99.887 114.18)" fill="#fff"/>
    <path id="Trazado_986" data-name="Trazado 986" d="M909.2,198.3H797.64a.809.809,0,0,1-.839-.776V92.776a.841.841,0,0,1,1.677,0V196.752H909.2a.778.778,0,1,1,0,1.552Z" transform="translate(-302.733 -85.169)" fill="#3f3d56"/>
    <path id="Trazado_987" data-name="Trazado 987" d="M341.174,322.375H208.64a.809.809,0,0,1-.839-.776V199.776a.841.841,0,0,1,1.678,0V320.823h131.7a.778.778,0,1,1,0,1.552Z" transform="translate(-207.801 -109.144)" fill="#3f3d56"/>
    <path id="Trazado_988" data-name="Trazado 988" d="M838.935,206.42h-21.3a3.381,3.381,0,0,1-3.5-3.238V174.866a3.381,3.381,0,0,1,3.5-3.238h21.3a3.381,3.381,0,0,1,3.5,3.238v28.316a3.381,3.381,0,0,1-3.5,3.238Zm-21.3-33.241a1.761,1.761,0,0,0-1.823,1.686v28.317a1.761,1.761,0,0,0,1.824,1.686h21.3a1.761,1.761,0,0,0,1.823-1.686V174.866a1.761,1.761,0,0,0-1.823-1.686Z" transform="translate(-305.528 -103.011)" fill="#3f3d56"/>
    <path id="Trazado_989" data-name="Trazado 989" d="M891.087,199.334h-19.6a4.2,4.2,0,0,1-4.348-4.023V144.023A4.2,4.2,0,0,1,871.487,140h19.6a4.2,4.2,0,0,1,4.348,4.022v51.289A4.2,4.2,0,0,1,891.087,199.334Zm-19.6-57.782a2.579,2.579,0,0,0-2.67,2.47v51.289a2.579,2.579,0,0,0,2.67,2.471h19.6a2.579,2.579,0,0,0,2.67-2.471V144.023a2.579,2.579,0,0,0-2.671-2.471Z" transform="translate(-314.07 -95.924)" fill="#3f3d56"/>
    <rect id="Rectángulo_252" data-name="Rectángulo 252" width="15.971" height="24.008" transform="translate(514.391 74.278)" fill="#f9f9f9"/>
    <rect id="Rectángulo_253" data-name="Rectángulo 253" width="15.971" height="46.451" transform="translate(559.232 50.518)" fill="#f9f9f9"/>
    <ellipse id="Elipse_221" data-name="Elipse 221" cx="7.549" cy="6.983" rx="7.549" ry="6.983" transform="translate(515.039 46.404)" fill="#fff"/>
    <ellipse id="Elipse_222" data-name="Elipse 222" cx="7.549" cy="6.983" rx="7.549" ry="6.983" transform="translate(559.496 20.022)" fill="#fff"/>
  </g>
</svg>
